<svg xmlns="http://www.w3.org/2000/svg">
<defs>
<clipPath id="clip0_1_517">
<rect width="212" height="48" fill="white"/>
</clipPath>


<clipPath id="clip0_1_1580">
<rect width="212" height="48" fill="white"/>
</clipPath>
</defs>
<symbol id="area" viewBox="0 0 20 22">
<path fill-rule="evenodd" clip-rule="evenodd" d="M6.75 2.5C6.31379 2.5 5.9153 2.50001 5.54757 2.50318C5.13337 2.50675 4.7947 2.17387 4.79112 1.75968C4.78755 1.34548 5.12043 1.00681 5.53463 1.00323C5.90946 1 6.31405 1 6.74787 1L7.65909 1C8.07331 1 8.40909 1.33579 8.40909 1.75C8.40909 2.16421 8.07331 2.5 7.65909 2.5L6.75 2.5ZM3.37882 1.8046C3.50175 2.20015 3.28075 2.62047 2.8852 2.7434C2.56401 2.84322 2.34048 2.97754 2.15901 3.15901C1.97754 3.34048 1.84322 3.56401 1.7434 3.8852C1.62047 4.28075 1.20015 4.50175 0.804603 4.37882C0.409051 4.25589 0.188049 3.83557 0.31098 3.44002C0.471157 2.92463 0.718764 2.47794 1.09835 2.09835C1.47794 1.71876 1.92463 1.47116 2.44002 1.31098C2.83557 1.18805 3.25589 1.40905 3.37882 1.8046ZM0.759676 5.79112C1.17387 5.7947 1.50675 6.13337 1.50318 6.54756C1.50001 6.9153 1.5 7.31379 1.5 7.75L1.5 9.11364C1.5 9.52785 1.16421 9.86364 0.75 9.86364C0.335787 9.86364 3.58141e-07 9.52785 4.17745e-07 9.11364L5.36955e-07 7.74787C5.36955e-07 7.31405 5.36907e-07 6.90946 0.00323409 6.53463C0.00680721 6.12043 0.345478 5.78755 0.759676 5.79112ZM0.75 11.6364C1.16421 11.6364 1.5 11.9722 1.5 12.3864L1.5 13.75C1.5 14.1862 1.50001 14.5847 1.50318 14.9524C1.50675 15.3666 1.17387 15.7053 0.759675 15.7089C0.345477 15.7125 0.00680643 15.3796 0.00323337 14.9654C-1.18744e-07 14.5905 -5.90917e-08 14.1859 5.12955e-10 13.7521L1.19722e-07 12.3864C1.79327e-07 11.9722 0.335787 11.6364 0.75 11.6364ZM0.804601 17.1212C1.20015 16.9983 1.62047 17.2193 1.7434 17.6148C1.84322 17.936 1.97754 18.1595 2.15901 18.341C2.34048 18.5225 2.56401 18.6568 2.8852 18.7566C3.28075 18.8795 3.50175 19.2998 3.37882 19.6954C3.25589 20.091 2.83557 20.312 2.44002 20.189C1.92463 20.0288 1.47794 19.7812 1.09835 19.4017C0.718763 19.0221 0.471156 18.5754 0.310979 18.06C0.188048 17.6644 0.40905 17.2441 0.804601 17.1212ZM4.79112 19.7403C4.7947 19.3261 5.13337 18.9932 5.54756 18.9968C5.9153 19 6.31379 19 6.75 19H7.65909C8.0733 19 8.40909 19.3358 8.40909 19.75C8.40909 20.1642 8.0733 20.5 7.65909 20.5H6.7477C6.31395 20.5 5.90941 20.5 5.53463 20.4968C5.12043 20.4932 4.78755 20.1545 4.79112 19.7403Z" fill="#5B2431"/>
<path fill-rule="evenodd" clip-rule="evenodd" d="M9.75 0C10.1642 5.96056e-08 10.5 0.335786 10.5 0.75V0.999999L10.8064 0.999999C12.6442 0.999983 14.0998 0.99997 15.239 1.15313C16.4114 1.31076 17.3604 1.64288 18.1088 2.39124C18.8571 3.13961 19.1892 4.08856 19.3469 5.26098C19.5 6.40019 19.5 7.85583 19.5 9.69359V11.8064C19.5 13.6442 19.5 15.0998 19.3469 16.239C19.1892 17.4114 18.8571 18.3604 18.1088 19.1088C17.3604 19.8571 16.4114 20.1892 15.239 20.3469C14.0998 20.5 12.6442 20.5 10.8064 20.5H10.5V20.75C10.5 21.1642 10.1642 21.5 9.75 21.5C9.33579 21.5 9 21.1642 9 20.75V19.7504L9 1.75159L9 1.75L9 1.74841V0.75C9 0.335786 9.33579 -5.96037e-08 9.75 0ZM10.5 2.5L10.5 19H10.75C12.6568 19 14.0115 18.9984 15.0391 18.8602C16.0452 18.725 16.6249 18.4713 17.0481 18.0481C17.4713 17.6249 17.725 17.0452 17.8602 16.0392C17.9984 15.0115 18 13.6568 18 11.75V9.75C18 7.84318 17.9984 6.48852 17.8602 5.46085C17.725 4.45476 17.4713 3.87511 17.0481 3.4519C16.6249 3.02869 16.0452 2.77502 15.0392 2.63976C14.0115 2.50159 12.6568 2.5 10.75 2.5H10.5Z" fill="#333333"/>
</symbol>
<symbol id="arrow1" viewBox="0 0 11 12">
  <path d="M3.801 1.333h5.017L0 10.15l.943.943 8.675-8.676v4.731h1.333V.667A.666.666 0 0 0 10.284 0H3.801v1.333Z"/>
</symbol>
<symbol id="arrow2" viewBox="0 0 5 11">
  <path fill-rule="evenodd" d="M4.88 4.841a.5.5 0 0 1 0 .651l-4 4.667a.5.5 0 1 1-.76-.651l3.721-4.341L.121.825A.5.5 0 1 1 .88.175l4 4.666Z"/>
</symbol>
<symbol id="building1" viewBox="0 0 22 22">
  <path fill-rule="evenodd" d="M13.698 0h2.104c.899 0 1.648 0 2.242.08.628.084 1.195.27 1.65.725.456.456.642 1.023.726 1.65.08.595.08 1.345.08 2.243V20h.25a.75.75 0 0 1 0 1.5h-20a.75.75 0 0 1 0-1.5H1V7.698c0-.898 0-1.648.08-2.242.084-.628.27-1.195.725-1.65.456-.456 1.023-.642 1.65-.726C4.05 3 4.8 3 5.699 3h3.33c.051-.874.213-1.63.777-2.195.456-.455 1.023-.64 1.65-.725C12.05 0 12.8 0 13.699 0ZM9.757 4.5H5.75c-.964 0-1.612.002-2.095.067-.461.062-.659.169-.789.3-.13.13-.237.327-.3.788-.064.483-.066 1.131-.066 2.095V20H7v-2.25a.75.75 0 0 1 1.5 0V20H13V7.75c0-.964-.002-1.612-.066-2.095-.063-.461-.17-.659-.3-.789-.13-.13-.328-.237-.79-.3-.481-.064-1.127-.066-2.087-.066ZM14.5 20V7.698c0-.898 0-1.648-.08-2.242-.084-.628-.27-1.195-.726-1.65-.455-.456-1.022-.642-1.65-.726-.425-.057-.93-.074-1.51-.078.05-.7.16-.963.332-1.136.13-.13.328-.237.79-.3.482-.064 1.13-.066 2.094-.066h2c.964 0 1.612.002 2.095.067.461.062.659.169.789.3.13.13.237.327.3.788.064.483.066 1.131.066 2.095V20h-4.5ZM4 6.75A.75.75 0 0 1 4.75 6h6a.75.75 0 0 1 0 1.5h-6A.75.75 0 0 1 4 6.75Zm0 3A.75.75 0 0 1 4.75 9h6a.75.75 0 0 1 0 1.5h-6A.75.75 0 0 1 4 9.75Zm0 3a.75.75 0 0 1 .75-.75h6a.75.75 0 0 1 0 1.5h-6a.75.75 0 0 1-.75-.75Z"/>
</symbol>
<symbol id="building2" viewBox="0 0 22 22">
  <path fill-rule="evenodd" d="M9.698 0h2.104c.899 0 1.648 0 2.242.08.628.084 1.195.27 1.65.725.456.456.642 1.023.726 1.65.023.17.04.351.05.545.59 0 1.088.004 1.499.046.473.048.913.153 1.309.417.3.201.558.459.759.76.264.395.369.835.417 1.308.046.452.046 1.011.046 1.68V20h.25a.75.75 0 0 1 0 1.5h-20a.75.75 0 0 1 0-1.5H1V7.212c0-.67 0-1.229.046-1.681.048-.473.153-.913.417-1.309.201-.3.459-.558.76-.759.395-.264.835-.369 1.308-.417C3.941 3.004 4.44 3 5.029 3c.012-.194.028-.375.05-.544.085-.628.271-1.195.726-1.65C6.261.35 6.828.163 7.455.08 8.05 0 8.8 0 9.699 0ZM5 4.5c-.583 0-.994.005-1.317.038-.355.036-.519.1-.627.173a1.25 1.25 0 0 0-.345.345c-.073.108-.137.272-.173.627-.037.367-.038.85-.038 1.567V20H5v-6.5h-.75a.75.75 0 0 1 0-1.5H5v-1.5h-.75a.75.75 0 0 1 0-1.5H5V7.5h-.75a.75.75 0 1 1 0-1.5H5V4.5ZM6.5 20H10v-2.25a.75.75 0 0 1 1.5 0V20H15V4.75c0-.964-.002-1.612-.066-2.095-.063-.461-.17-.659-.3-.789-.13-.13-.328-.237-.79-.3-.482-.064-1.13-.066-2.094-.066h-2c-.964 0-1.612.002-2.095.067-.461.062-.659.169-.789.3-.13.13-.237.327-.3.788-.064.483-.066 1.131-.066 2.095V20Zm10-12.5h.75a.75.75 0 0 0 0-1.5h-.75V4.5c.583 0 .994.005 1.317.038.355.036.519.1.628.173.136.09.253.208.344.345.073.108.137.272.173.627.037.367.038.85.038 1.567V20h-2.5v-6.5h.75a.75.75 0 0 0 0-1.5h-.75v-1.5h.75a.75.75 0 0 0 0-1.5h-.75V7.5Zm-5.75-3a1.25 1.25 0 1 0 0 2.5 1.25 1.25 0 0 0 0-2.5ZM8 5.75a2.75 2.75 0 1 1 5.5 0 2.75 2.75 0 0 1-5.5 0Zm0 5a.75.75 0 0 1 .75-.75h4a.75.75 0 0 1 0 1.5h-4a.75.75 0 0 1-.75-.75Zm0 3a.75.75 0 0 1 .75-.75h4a.75.75 0 0 1 0 1.5h-4a.75.75 0 0 1-.75-.75Z"/>
</symbol>
<symbol id="check1" viewBox="0 0 9 7">
  <path d="M8.344 1.28a.746.746 0 0 0 0-1.06.76.76 0 0 0-1.069 0L2.771 4.69l-1.48-1.47a.76.76 0 0 0-1.07 0 .746.746 0 0 0 0 1.06l2.016 2a.76.76 0 0 0 1.069 0l5.038-5Z"/>
</symbol>
<symbol id="check2" viewBox="0 0 15 15">
  <path fill-rule="evenodd" d="M15 7.5a7.5 7.5 0 1 1-15 0 7.5 7.5 0 0 1 15 0Zm-4.477-2.273c.22.22.22.576 0 .796l-3.75 3.75a.563.563 0 0 1-.796 0l-1.5-1.5a.563.563 0 0 1 .796-.796L6.375 8.58l1.676-1.676 1.676-1.676c.22-.22.576-.22.796 0Z"/>
</symbol>
<symbol id="check3" viewBox="0 0 20 22">
  <path d="M12.81 9.25a.75.75 0 0 0-1.12-1l-3.01 3.374-.87-.974a.75.75 0 0 0-1.118 1l1.428 1.6a.75.75 0 0 0 1.119 0l3.572-4Z"/>
  <path fill-rule="evenodd" d="M9.75 0c-.938 0-1.833.307-3.277.801l-.727.25c-1.481.506-2.625.898-3.443 1.23-.412.167-.767.33-1.052.495-.275.16-.55.359-.737.626-.185.263-.281.587-.341.9-.063.324-.1.713-.125 1.16C0 6.347 0 7.563 0 9.14v1.601c0 6.101 4.608 9.026 7.348 10.224l.027.011c.34.149.66.288 1.027.382.387.1.799.142 1.348.142.55 0 .96-.042 1.348-.142.367-.094.687-.233 1.026-.382l.028-.011c2.74-1.198 7.348-4.123 7.348-10.224V9.14c0-1.576 0-2.792-.048-3.679a8.85 8.85 0 0 0-.125-1.16c-.06-.312-.156-.636-.34-.9-.188-.266-.463-.465-.738-.625a8.554 8.554 0 0 0-1.052-.495c-.818-.332-1.962-.724-3.443-1.23L13.027.8C11.583.307 10.687 0 9.75 0ZM6.83 2.264C8.446 1.712 9.093 1.5 9.75 1.5c.658 0 1.305.212 2.92.764l.572.196c1.513.518 2.616.896 3.39 1.21.387.158.667.29.864.404.097.056.164.102.208.139.038.03.053.048.055.05a.408.408 0 0 1 .032.074c.02.056.042.136.063.248a7.4 7.4 0 0 1 .1.958C18 6.384 18 7.558 18 9.167v1.574c0 5.175-3.87 7.723-6.449 8.849-.371.162-.586.254-.825.315-.228.059-.506.095-.976.095s-.748-.036-.976-.095c-.24-.06-.454-.153-.825-.315-2.58-1.127-6.449-3.674-6.449-8.849V9.167c0-1.609 0-2.783.046-3.624a7.4 7.4 0 0 1 .1-.958c.021-.112.043-.192.063-.248.018-.05.03-.07.032-.074a.386.386 0 0 1 .055-.05 1.57 1.57 0 0 1 .208-.14c.197-.114.477-.245.864-.402.774-.315 1.877-.693 3.39-1.21l.573-.197Z"/>
</symbol>
<symbol id="close" viewBox="0 0 18 18">
  <path stroke="currentColor" stroke-linecap="round" stroke-width="2" d="M17 1 1 17M1 1l16 16"/>
</symbol>
<symbol id="info" viewBox="0 0 15 15">
  <path fill-rule="evenodd" d="M15 7.5a7.5 7.5 0 1 1-15 0 7.5 7.5 0 0 1 15 0ZM7.5 4.312a.844.844 0 0 0-.844.844.563.563 0 0 1-1.125 0 1.969 1.969 0 1 1 3.381 1.372l-.198.2a5.122 5.122 0 0 0-.428.463c-.164.211-.223.367-.223.497v.562a.563.563 0 0 1-1.126 0v-.563c0-.49.23-.889.461-1.187.172-.22.387-.435.562-.61l.145-.146A.844.844 0 0 0 7.5 4.312Zm0 6.938a.75.75 0 1 0 0-1.5.75.75 0 0 0 0 1.5Z"/>
</symbol>
<symbol id="logo1" viewBox="0 0 212 48">
<g clip-path="url(#clip0_1_517)">
<path d="M212 39.5824V45.5346H210.756V43.6298H209.57L208.464 45.5346H207.026L208.316 43.4156C207.981 43.2568 207.718 43.0227 207.528 42.7132C207.346 42.3958 207.255 42.0267 207.255 41.6061C207.255 41.3124 207.304 41.0426 207.403 40.7966C207.502 40.5427 207.639 40.3283 207.814 40.1538C207.997 39.9713 208.213 39.8324 208.464 39.7371C208.715 39.6339 208.992 39.5824 209.297 39.5824H212ZM210.756 40.7252H209.456C209.16 40.7252 208.924 40.8085 208.749 40.9751C208.581 41.1339 208.498 41.3442 208.498 41.6061C208.498 41.868 208.581 42.0823 208.749 42.2489C208.924 42.4077 209.16 42.4871 209.456 42.4871H210.756V40.7252Z" fill="white"/>
<path d="M196.613 39.5824H197.915V43.5466L200.44 39.5824H201.743V45.5346H200.44V41.5704L197.904 45.5346H196.613V39.5824Z" fill="white"/>
<path d="M185.578 45.4929V39.5824H186.872V44.2635H189.291V39.5824H190.575V44.2635H191.483V46.9824H190.211V45.4929H185.578Z" fill="white"/>
<path d="M178.577 44.7212C178.156 45.3708 177.528 45.6956 176.694 45.6956C176.396 45.6956 176.121 45.652 175.869 45.5649C175.624 45.4777 175.414 45.355 175.238 45.1965C175.069 45.0302 174.935 44.8361 174.836 44.6143C174.744 44.3845 174.698 44.135 174.698 43.8657C174.698 43.2716 174.916 42.8082 175.352 42.4754C175.789 42.1348 176.411 41.9487 177.223 41.9169L178.577 41.8576V41.7863C178.577 41.3981 178.462 41.0931 178.232 40.8713C178.003 40.6495 177.689 40.5385 177.292 40.5385C176.664 40.5385 176.201 40.8396 175.903 41.4416L174.859 40.907C175.096 40.4317 175.425 40.0673 175.845 39.8137C176.267 39.5524 176.767 39.4216 177.349 39.4216C177.732 39.4216 178.075 39.4771 178.382 39.588C178.688 39.6989 178.948 39.8613 179.162 40.0752C179.376 40.2811 179.54 40.5307 179.655 40.8238C179.77 41.1169 179.827 41.4456 179.827 41.8101V45.5293H178.577V44.7212ZM176.982 44.5667C177.219 44.5667 177.433 44.5272 177.624 44.4479C177.824 44.3688 177.991 44.2579 178.129 44.1152C178.274 43.9726 178.386 43.8023 178.462 43.6043C178.538 43.4062 178.577 43.1884 178.577 42.9507V42.8438L177.303 42.8913C176.415 42.9388 175.972 43.2319 175.972 43.7706C175.972 44.0162 176.06 44.2103 176.235 44.3529C176.419 44.4955 176.668 44.5667 176.982 44.5667Z" fill="white"/>
<path d="M169.879 39.5824V40.8204H168.047V45.5346H166.726V40.8204H164.906V39.5824H169.879Z" fill="white"/>
<path d="M156.394 41.8561H157.146L158.762 39.5824H160.188L158.134 42.4156L160.244 45.5346H158.774L157.124 43.0584H156.394V45.5346H155.115V39.5824H156.394V41.8561Z" fill="white"/>
<path d="M147.085 45.6956C146.645 45.6956 146.239 45.6204 145.867 45.4698C145.495 45.3114 145.176 45.0935 144.91 44.8163C144.652 44.539 144.448 44.2102 144.295 43.8301C144.151 43.4498 144.08 43.0299 144.08 42.5705C144.08 42.1111 144.151 41.6912 144.295 41.311C144.448 40.9228 144.652 40.5901 144.91 40.3128C145.176 40.0277 145.492 39.8098 145.856 39.6593C146.22 39.5009 146.619 39.4216 147.051 39.4216C147.461 39.4216 147.837 39.4929 148.179 39.6356C148.52 39.7781 148.813 39.9801 149.056 40.2415C149.307 40.4951 149.496 40.8 149.626 41.1565C149.762 41.5129 149.83 41.909 149.83 42.3447C149.83 42.4319 149.826 42.523 149.819 42.618C149.811 42.713 149.8 42.8161 149.785 42.927H145.367C145.435 43.4182 145.62 43.8063 145.924 44.0914C146.235 44.3687 146.63 44.5074 147.108 44.5074C147.784 44.5074 148.293 44.2143 148.635 43.6281L149.568 44.3885C149.288 44.8163 148.938 45.1411 148.52 45.3629C148.103 45.5847 147.625 45.6956 147.085 45.6956ZM147.029 40.5742C146.619 40.5742 146.27 40.697 145.981 40.9426C145.7 41.1803 145.507 41.505 145.401 41.9169H148.532C148.494 41.5129 148.338 41.1882 148.065 40.9426C147.791 40.697 147.446 40.5742 147.029 40.5742Z" fill="white"/>
<path d="M133.044 44.221H133.137C133.331 44.221 133.489 44.1895 133.613 44.1264C133.745 44.0554 133.846 43.9292 133.915 43.7477C133.993 43.5663 134.046 43.3177 134.078 43.0022C134.109 42.6788 134.124 42.2685 134.124 41.7716V39.5824H138.639V45.4991H137.316V40.813H135.401V41.9964C135.401 42.6354 135.366 43.1797 135.297 43.6294C135.227 44.0711 135.11 44.4341 134.948 44.7181C134.786 45.0021 134.565 45.2111 134.287 45.3452C134.008 45.4715 133.659 45.5346 133.242 45.5346H133.044V44.221Z" fill="white"/>
<path d="M122.786 39.5824H127.916V45.5346H126.609V40.8204H124.103V45.5346H122.786V39.5824Z" fill="white"/>
<path d="M115.534 39.5824H117.035V45.5346H115.859V41.3919L114.302 44.7132H113.552L111.995 41.3919V45.5346H110.818V39.5824H112.341L113.943 43.0942L115.534 39.5824Z" fill="white"/>
<path d="M102.348 45.6956C101.902 45.6956 101.495 45.6164 101.127 45.458C100.758 45.2996 100.439 45.0817 100.17 44.8044C99.9012 44.5192 99.6901 44.1865 99.5359 43.8063C99.3901 43.4261 99.3173 43.0102 99.3173 42.5587C99.3173 42.1071 99.3901 41.6912 99.5359 41.311C99.6901 40.9307 99.9012 40.6019 100.17 40.3247C100.439 40.0395 100.758 39.8178 101.127 39.6593C101.495 39.5009 101.902 39.4216 102.348 39.4216C102.793 39.4216 103.2 39.5009 103.57 39.6593C103.939 39.8178 104.257 40.0395 104.526 40.3247C104.795 40.6019 105.002 40.9307 105.148 41.311C105.302 41.6912 105.379 42.1071 105.379 42.5587C105.379 43.0102 105.302 43.4261 105.148 43.8063C105.002 44.1865 104.795 44.5192 104.526 44.8044C104.257 45.0817 103.939 45.2996 103.57 45.458C103.2 45.6164 102.793 45.6956 102.348 45.6956ZM102.348 44.4479C102.594 44.4479 102.821 44.4004 103.028 44.3054C103.243 44.2103 103.424 44.0796 103.57 43.9132C103.723 43.7469 103.842 43.5488 103.926 43.3191C104.012 43.0815 104.053 42.828 104.053 42.5587C104.053 42.2813 104.012 42.0278 103.926 41.7981C103.842 41.5684 103.723 41.3704 103.57 41.204C103.424 41.0376 103.243 40.907 103.028 40.8119C102.821 40.7168 102.594 40.6693 102.348 40.6693C102.103 40.6693 101.872 40.7168 101.657 40.8119C101.45 40.907 101.269 41.0376 101.115 41.204C100.969 41.3704 100.853 41.5684 100.769 41.7981C100.685 42.0278 100.642 42.2813 100.642 42.5587C100.642 42.828 100.685 43.0815 100.769 43.3191C100.853 43.5488 100.969 43.7469 101.115 43.9132C101.269 44.0796 101.45 44.2103 101.657 44.3054C101.872 44.4004 102.103 44.4479 102.348 44.4479Z" fill="white"/>
<path d="M90.844 41.8561H91.6188L93.2839 39.5824H94.7527L92.6363 42.4156L94.8104 45.5346H93.2954L91.5957 43.0584H90.844V45.5346H89.5258V39.5824H90.844V41.8561Z" fill="white"/>
<path d="M71.4961 39.5824H72.8377V43.5466L75.4388 39.5824H76.7804V45.5346H75.4388V41.5704L72.826 45.5346H71.4961V39.5824Z" fill="white"/>
<path d="M58.5953 39.5824V45.5346H57.29V42.9989H54.7832V45.5346H53.4663V39.5824H54.7832V41.7727H57.29V39.5824H58.5953Z" fill="white"/>
<path d="M42.7418 39.5846H44.044V43.5473L46.5685 39.5846H47.8708V45.5346H46.5685V41.5719L44.0326 45.5346H42.7418V39.5846ZM45.312 38.7516C44.7332 38.7516 44.2573 38.6048 43.8841 38.3112C43.5109 38.0098 43.2787 37.5933 43.1873 37.0618L44.284 36.8475C44.3296 37.1411 44.44 37.3632 44.6152 37.514C44.7903 37.6647 45.0227 37.74 45.312 37.74C45.8984 37.74 46.2373 37.4425 46.3286 36.8475L47.4254 37.0618C47.3339 37.5933 47.1017 38.0098 46.7285 38.3112C46.3553 38.6048 45.8831 38.7516 45.312 38.7516Z" fill="white"/>
<path d="M35.779 44.7212C35.3711 45.3708 34.7628 45.6956 33.9543 45.6956C33.6649 45.6956 33.398 45.652 33.1531 45.5649C32.9157 45.4777 32.7118 45.355 32.5411 45.1965C32.378 45.0302 32.2481 44.8361 32.1517 44.6143C32.0627 44.3845 32.0182 44.135 32.0182 43.8657C32.0182 43.2716 32.2296 42.8082 32.6525 42.4754C33.0752 42.1348 33.6798 41.9487 34.4661 41.9169L35.779 41.8576V41.7863C35.779 41.3981 35.6678 41.0931 35.4452 40.8713C35.2227 40.6495 34.9186 40.5385 34.5328 40.5385C33.9245 40.5385 33.4758 40.8396 33.1865 41.4416L32.174 40.907C32.4039 40.4317 32.7229 40.0673 33.1309 39.8137C33.5389 39.5524 34.0247 39.4216 34.5885 39.4216C34.9594 39.4216 35.2932 39.4771 35.5899 39.588C35.8866 39.6989 36.1388 39.8613 36.3465 40.0752C36.5542 40.2811 36.7137 40.5307 36.8249 40.8238C36.9362 41.1169 36.9918 41.4456 36.9918 41.8101V45.5293H35.779V44.7212ZM34.2324 44.5667C34.4624 44.5667 34.67 44.5272 34.8555 44.4479C35.0483 44.3688 35.2116 44.2579 35.345 44.1152C35.486 43.9726 35.5936 43.8023 35.6678 43.6043C35.7419 43.4062 35.779 43.1884 35.779 42.9507V42.8438L34.544 42.8913C33.6835 42.9388 33.2532 43.2319 33.2532 43.7706C33.2532 44.0162 33.3386 44.2103 33.5092 44.3529C33.6872 44.4955 33.9283 44.5667 34.2324 44.5667Z" fill="white"/>
<path d="M24.5965 45.6956C23.9585 45.6956 23.4318 45.545 23.0164 45.2441C22.601 44.9431 22.2856 44.5153 22.0705 43.9607L23.1388 43.5093C23.3761 44.2143 23.8546 44.5667 24.5742 44.5667C24.9155 44.5667 25.19 44.4915 25.3976 44.341C25.6053 44.1905 25.7093 43.9846 25.7093 43.7231C25.7093 43.4934 25.6276 43.3151 25.4644 43.1884C25.3086 43.0617 25.0898 42.9983 24.8079 42.9983H23.6729V41.9051H24.7856C25.0379 41.9051 25.2344 41.8496 25.3754 41.7387C25.5164 41.6199 25.5868 41.4654 25.5868 41.2753C25.5868 41.0535 25.494 40.8752 25.3086 40.7406C25.1306 40.598 24.8858 40.5267 24.5742 40.5267C23.9288 40.5267 23.4911 40.8396 23.2612 41.4654L22.2263 41.002C22.4489 40.4792 22.7642 40.0871 23.1722 39.8256C23.5876 39.5563 24.0809 39.4216 24.6521 39.4216C25.2975 39.4216 25.8094 39.5801 26.1877 39.8969C26.5734 40.2059 26.7663 40.6178 26.7663 41.1327C26.7663 41.7665 26.4696 42.1982 25.8761 42.4279C26.1952 42.5388 26.4436 42.721 26.6216 42.9745C26.7997 43.2201 26.8887 43.5211 26.8887 43.8776C26.8887 44.1469 26.833 44.3965 26.7218 44.6262C26.6105 44.848 26.4548 45.0381 26.2545 45.1965C26.0541 45.355 25.8131 45.4777 25.5311 45.5649C25.2493 45.652 24.9377 45.6956 24.5965 45.6956Z" fill="white"/>
<path d="M11.6571 39.5824H12.9987V43.5466L15.5998 39.5824H16.9416V45.5346H15.5998V41.5704L12.987 45.5346H11.6571V39.5824Z" fill="white"/>
<path d="M0.000473022 44.2635H0.556034C0.648628 44.1532 0.725789 44.0114 0.787518 43.838C0.849247 43.6646 0.899402 43.4519 0.937982 43.1996C0.976564 42.9395 1.00357 42.6322 1.019 42.2776C1.04215 41.9229 1.05373 41.5131 1.05373 41.0481V39.5824H5.60238V44.2635H6.52831V46.9824H5.23201V45.4929H1.29678V46.9824H0.000473022V44.2635ZM4.2945 44.2635V40.8118H2.33846V41.3201C2.33846 41.6904 2.33074 42.0215 2.31531 42.3131C2.29988 42.6046 2.27673 42.8686 2.24587 43.1051C2.215 43.3336 2.17257 43.5425 2.11855 43.7316C2.06454 43.9207 2.0028 44.0981 1.93337 44.2635H4.2945Z" fill="white"/>
<path d="M212 39.666V45.6183H210.756V43.7136H209.57L208.464 45.6183H207.026L208.316 43.4993C207.981 43.3406 207.718 43.1065 207.528 42.7969C207.346 42.4795 207.255 42.1104 207.255 41.6899C207.255 41.3962 207.304 41.1263 207.403 40.8803C207.502 40.6263 207.639 40.4121 207.814 40.2375C207.997 40.0549 208.213 39.916 208.464 39.8208C208.715 39.7177 208.992 39.666 209.297 39.666H212ZM210.756 40.8089H209.456C209.16 40.8089 208.924 40.8922 208.749 41.0589C208.581 41.2176 208.498 41.4279 208.498 41.6899C208.498 41.9517 208.581 42.166 208.749 42.3327C208.924 42.4914 209.16 42.5707 209.456 42.5707H210.756V40.8089Z" fill="white"/>
<path d="M196.613 39.666H197.915V43.6302L200.44 39.666H201.743V45.6183H200.44V41.6541L197.904 45.6183H196.613V39.666Z" fill="white"/>
<path d="M185.578 45.5767V39.666H186.872V44.3473H189.291V39.666H190.575V44.3473H191.483V47.0662H190.211V45.5767H185.578Z" fill="white"/>
<path d="M178.577 44.805C178.156 45.4545 177.528 45.7794 176.694 45.7794C176.396 45.7794 176.121 45.7358 175.869 45.6486C175.624 45.5615 175.414 45.4387 175.238 45.2803C175.069 45.1139 174.935 44.9198 174.836 44.698C174.744 44.4683 174.698 44.2188 174.698 43.9494C174.698 43.3553 174.916 42.8918 175.352 42.5592C175.789 42.2185 176.411 42.0323 177.223 42.0007L178.577 41.9412V41.87C178.577 41.4818 178.462 41.1768 178.232 40.955C178.003 40.7332 177.689 40.6223 177.292 40.6223C176.664 40.6223 176.201 40.9233 175.903 41.5254L174.859 40.9906C175.096 40.5153 175.425 40.1509 175.845 39.8975C176.267 39.636 176.767 39.5054 177.349 39.5054C177.732 39.5054 178.075 39.5608 178.382 39.6717C178.688 39.7826 178.948 39.945 179.162 40.1589C179.376 40.3649 179.54 40.6144 179.655 40.9075C179.77 41.2006 179.827 41.5293 179.827 41.8937V45.6129H178.577V44.805ZM176.982 44.6505C177.219 44.6505 177.433 44.6109 177.624 44.5317C177.824 44.4524 177.991 44.3415 178.129 44.199C178.275 44.0564 178.386 43.886 178.462 43.688C178.538 43.49 178.577 43.2721 178.577 43.0344V42.9275L177.303 42.9751C176.415 43.0226 175.972 43.3157 175.972 43.8544C175.972 44.1 176.06 44.294 176.236 44.4366C176.419 44.5792 176.668 44.6505 176.982 44.6505Z" fill="white"/>
<path d="M169.879 39.666V40.9041H168.047V45.6183H166.726V40.9041H164.906V39.666H169.879Z" fill="white"/>
<path d="M156.394 41.9399H157.146L158.762 39.666H160.188L158.133 42.4993L160.244 45.6183H158.773L157.123 43.1422H156.394V45.6183H155.115V39.666H156.394V41.9399Z" fill="white"/>
<path d="M147.085 45.7794C146.645 45.7794 146.239 45.704 145.867 45.5536C145.495 45.3952 145.176 45.1773 144.91 44.9C144.652 44.6228 144.448 44.294 144.295 43.9137C144.151 43.5336 144.08 43.1137 144.08 42.6542C144.08 42.1947 144.151 41.7749 144.295 41.3947C144.448 41.0065 144.652 40.6738 144.91 40.3965C145.176 40.1113 145.492 39.8935 145.856 39.743C146.22 39.5845 146.619 39.5054 147.051 39.5054C147.461 39.5054 147.837 39.5766 148.179 39.7192C148.52 39.8618 148.813 40.0638 149.056 40.3252C149.307 40.5787 149.496 40.8838 149.626 41.2402C149.762 41.5967 149.83 41.9928 149.83 42.4285C149.83 42.5156 149.826 42.6067 149.819 42.7018C149.811 42.7968 149.8 42.8998 149.785 43.0106H145.367C145.435 43.5018 145.62 43.89 145.924 44.1752C146.235 44.4524 146.63 44.591 147.108 44.591C147.784 44.591 148.293 44.2979 148.635 43.7117L149.568 44.4722C149.288 44.9 148.938 45.2248 148.52 45.4466C148.103 45.6684 147.625 45.7794 147.085 45.7794ZM147.029 40.658C146.619 40.658 146.27 40.7807 145.981 41.0263C145.7 41.2639 145.507 41.5888 145.401 42.0007H148.532C148.494 41.5967 148.338 41.2719 148.065 41.0263C147.791 40.7807 147.446 40.658 147.029 40.658Z" fill="white"/>
<path d="M133.044 44.3048H133.137C133.331 44.3048 133.489 44.2732 133.613 44.2102C133.745 44.1391 133.846 44.0129 133.915 43.8314C133.993 43.65 134.046 43.4015 134.078 43.086C134.109 42.7625 134.124 42.3523 134.124 41.8552V39.666H138.639V45.5828H137.316V40.8968H135.401V42.0801C135.401 42.7191 135.366 43.2635 135.297 43.7131C135.227 44.1549 135.11 44.5178 134.948 44.8018C134.786 45.0858 134.565 45.2949 134.287 45.429C134.008 45.5551 133.659 45.6183 133.242 45.6183H133.044V44.3048Z" fill="white"/>
<path d="M122.786 39.666H127.916V45.6183H126.609V40.9041H124.103V45.6183H122.786V39.666Z" fill="white"/>
<path d="M115.533 39.666H117.034V45.6183H115.858V41.4755L114.301 44.7969H113.551L111.994 41.4755V45.6183H110.817V39.666H112.341L113.943 43.1779L115.533 39.666Z" fill="white"/>
<path d="M102.348 45.7794C101.902 45.7794 101.495 45.7001 101.126 45.5417C100.758 45.3832 100.439 45.1654 100.17 44.8881C99.9003 44.603 99.6892 44.2702 99.5359 43.89C99.3901 43.5097 99.3163 43.0939 99.3163 42.6423C99.3163 42.1908 99.3901 41.7749 99.5359 41.3947C99.6892 41.0144 99.9003 40.6857 100.17 40.4085C100.439 40.1232 100.758 39.9014 101.126 39.743C101.495 39.5845 101.902 39.5054 102.348 39.5054C102.793 39.5054 103.2 39.5845 103.57 39.743C103.938 39.9014 104.257 40.1232 104.525 40.4085C104.794 40.6857 105.002 41.0144 105.148 41.3947C105.302 41.7749 105.378 42.1908 105.378 42.6423C105.378 43.0939 105.302 43.5097 105.148 43.89C105.002 44.2702 104.794 44.603 104.525 44.8881C104.257 45.1654 103.938 45.3832 103.57 45.5417C103.2 45.7001 102.793 45.7794 102.348 45.7794ZM102.348 44.5317C102.594 44.5317 102.82 44.4841 103.027 44.389C103.243 44.294 103.423 44.1633 103.57 43.9969C103.723 43.8306 103.842 43.6326 103.926 43.4028C104.011 43.1651 104.053 42.9117 104.053 42.6423C104.053 42.3651 104.011 42.1116 103.926 41.8819C103.842 41.6521 103.723 41.4541 103.57 41.2877C103.423 41.1214 103.243 40.9906 103.027 40.8956C102.82 40.8005 102.594 40.753 102.348 40.753C102.102 40.753 101.872 40.8005 101.656 40.8956C101.449 40.9906 101.268 41.1214 101.115 41.2877C100.969 41.4541 100.853 41.6521 100.769 41.8819C100.684 42.1116 100.642 42.3651 100.642 42.6423C100.642 42.9117 100.684 43.1651 100.769 43.4028C100.853 43.6326 100.969 43.8306 101.115 43.9969C101.268 44.1633 101.449 44.294 101.656 44.389C101.872 44.4841 102.102 44.5317 102.348 44.5317Z" fill="white"/>
<path d="M90.8435 41.9399H91.6183L93.2834 39.666H94.7517L92.6359 42.4993L94.8094 45.6183H93.295L91.5952 43.1422H90.8435V45.6183H89.5253V39.666H90.8435V41.9399Z" fill="white"/>
<path d="M71.4961 39.666H72.8377V43.6302L75.4388 39.666H76.7804V45.6183H75.4388V41.6541L72.826 45.6183H71.4961V39.666Z" fill="white"/>
<path d="M58.5948 39.666V45.6183H57.2895V43.0827H54.7827V45.6183H53.4658V39.666H54.7827V41.8565H57.2895V39.666H58.5948Z" fill="white"/>
<path d="M42.7413 39.6683H44.0436V43.631L46.5681 39.6683H47.8703V45.6183H46.5681V41.6556L44.0321 45.6183H42.7413V39.6683ZM45.3116 38.8353C44.7327 38.8353 44.2568 38.6885 43.8836 38.395C43.5104 38.0935 43.2782 37.6771 43.1869 37.1454L44.2835 36.9313C44.3292 37.2248 44.4395 37.447 44.6147 37.5977C44.7899 37.7484 45.0222 37.8238 45.3116 37.8238C45.8979 37.8238 46.2368 37.5263 46.3282 36.9313L47.4249 37.1454C47.3334 37.6771 47.1012 38.0935 46.728 38.395C46.3548 38.6885 45.8827 38.8353 45.3116 38.8353Z" fill="white"/>
<path d="M35.779 44.805C35.3711 45.4545 34.7628 45.7794 33.9543 45.7794C33.6649 45.7794 33.398 45.7358 33.1531 45.6486C32.9157 45.5615 32.7118 45.4387 32.5411 45.2803C32.378 45.1139 32.2481 44.9198 32.1517 44.698C32.0627 44.4683 32.0182 44.2188 32.0182 43.9494C32.0182 43.3553 32.2296 42.8918 32.6525 42.5592C33.0752 42.2185 33.6798 42.0323 34.4661 42.0007L35.779 41.9412V41.87C35.779 41.4818 35.6678 41.1768 35.4453 40.955C35.2227 40.7332 34.9186 40.6223 34.5328 40.6223C33.9245 40.6223 33.4758 40.9233 33.1865 41.5254L32.174 40.9906C32.4039 40.5153 32.7229 40.1509 33.1309 39.8975C33.5389 39.636 34.0247 39.5054 34.5885 39.5054C34.9594 39.5054 35.2932 39.5608 35.5899 39.6717C35.8866 39.7826 36.1388 39.945 36.3465 40.1589C36.5542 40.3649 36.7137 40.6144 36.8249 40.9075C36.9362 41.2006 36.9918 41.5293 36.9918 41.8937V45.6129H35.779V44.805ZM34.2324 44.6505C34.4624 44.6505 34.67 44.6109 34.8555 44.5317C35.0483 44.4524 35.2116 44.3415 35.345 44.199C35.4861 44.0564 35.5936 43.886 35.6678 43.688C35.742 43.49 35.779 43.2721 35.779 43.0344V42.9275L34.544 42.9751C33.6835 43.0226 33.2532 43.3157 33.2532 43.8544C33.2532 44.1 33.3386 44.294 33.5092 44.4366C33.6872 44.5792 33.9283 44.6505 34.2324 44.6505Z" fill="white"/>
<path d="M24.596 45.7794C23.9581 45.7794 23.4313 45.6288 23.0159 45.3278C22.6005 45.0267 22.2852 44.599 22.0701 44.0445L23.1383 43.5929C23.3758 44.2979 23.8542 44.6505 24.5738 44.6505C24.915 44.6505 25.1895 44.5753 25.3972 44.4247C25.6049 44.2742 25.7088 44.0682 25.7088 43.8069C25.7088 43.577 25.6272 43.3989 25.464 43.2721C25.3082 43.1453 25.0894 43.082 24.8074 43.082H23.6725V41.9888H24.7852C25.0374 41.9888 25.234 41.9334 25.375 41.8224C25.5159 41.7036 25.5863 41.5491 25.5863 41.3591C25.5863 41.1372 25.4937 40.959 25.3082 40.8243C25.1302 40.6817 24.8853 40.6105 24.5738 40.6105C23.9284 40.6105 23.4908 40.9233 23.2608 41.5491L22.2259 41.0857C22.4485 40.5628 22.7637 40.1708 23.1717 39.9094C23.5871 39.64 24.0805 39.5054 24.6516 39.5054C25.2971 39.5054 25.8089 39.6638 26.1872 39.9807C26.573 40.2896 26.7659 40.7016 26.7659 41.2164C26.7659 41.8501 26.4692 42.2819 25.8757 42.5116C26.1947 42.6225 26.4432 42.8047 26.6213 43.0583C26.7993 43.3038 26.8882 43.6049 26.8882 43.9613C26.8882 44.2306 26.8327 44.4801 26.7214 44.7098C26.6101 44.9317 26.4543 45.1219 26.254 45.2803C26.0537 45.4387 25.8126 45.5615 25.5308 45.6486C25.2488 45.7358 24.9373 45.7794 24.596 45.7794Z" fill="white"/>
<path d="M11.6566 39.666H12.9983V43.6302L15.5993 39.666H16.9411V45.6183H15.5993V41.6541L12.9865 45.6183H11.6566V39.666Z" fill="white"/>
<path d="M0 44.3473H0.555562C0.648156 44.2369 0.725317 44.0951 0.787046 43.9217C0.848776 43.7483 0.89893 43.5355 0.937511 43.2834C0.97609 43.0233 1.0031 42.7159 1.01853 42.3613C1.04168 42.0067 1.05325 41.5969 1.05325 41.1319V39.666H5.60192V44.3473H6.52786V47.0662H5.23154V45.5767H1.29631V47.0662H0V44.3473ZM4.29403 44.3473V40.8955H2.33799V41.4038C2.33799 41.7742 2.33028 42.1052 2.31484 42.3967C2.29941 42.6884 2.27626 42.9524 2.2454 43.1887C2.21453 43.4173 2.17209 43.6261 2.11808 43.8153C2.06407 44.0044 2.00234 44.1817 1.93289 44.3473H4.29403Z" fill="white"/>
<path d="M155.022 7.01125H158.024V10.2789C158.766 9.07435 159.717 8.13891 160.879 7.47257C162.065 6.80622 163.4 6.47305 164.882 6.47305C166.167 6.47305 167.365 6.72933 168.478 7.2419C169.59 7.75448 170.554 8.45926 171.369 9.35627C172.185 10.2533 172.815 11.3297 173.26 12.5855C173.729 13.8157 173.964 15.1611 173.964 16.622C173.964 18.0828 173.729 19.4411 173.26 20.6969C172.815 21.9271 172.185 22.9906 171.369 23.8876C170.554 24.7847 169.59 25.4895 168.478 26.002C167.365 26.5146 166.167 26.7709 164.882 26.7709C163.4 26.7709 162.065 26.4377 160.879 25.7714C159.717 25.105 158.766 24.1696 158.024 22.9651V33.9212H155.022V7.01125ZM164.474 23.8492C165.439 23.8492 166.316 23.6698 167.106 23.3111C167.897 22.9522 168.577 22.4524 169.145 21.8118C169.714 21.1454 170.146 20.3766 170.442 19.5051C170.764 18.6081 170.924 17.6471 170.924 16.622C170.924 15.5712 170.764 14.6101 170.442 13.7388C170.146 12.8673 169.714 12.1114 169.145 11.4706C168.577 10.8043 167.897 10.2917 167.106 9.93286C166.316 9.57411 165.439 9.39471 164.474 9.39471C163.511 9.39471 162.633 9.57411 161.843 9.93286C161.052 10.2917 160.372 10.8043 159.804 11.4706C159.236 12.1114 158.791 12.8673 158.469 13.7388C158.173 14.6101 158.024 15.5712 158.024 16.622C158.024 17.6471 158.173 18.6081 158.469 19.5051C158.791 20.3766 159.236 21.1454 159.804 21.8118C160.372 22.4524 161.052 22.9522 161.843 23.3111C162.633 23.6698 163.511 23.8492 164.474 23.8492Z" fill="white"/>
<path d="M142.227 26.7063C140.79 26.7063 139.475 26.4636 138.286 25.9782C137.12 25.4672 136.115 24.7647 135.273 23.8706C134.43 22.9764 133.773 21.9162 133.302 20.69C132.83 19.4637 132.595 18.1224 132.595 16.6663C132.595 15.1846 132.83 13.8306 133.302 12.6043C133.773 11.3525 134.43 10.2795 135.273 9.38541C136.141 8.46572 137.157 7.7504 138.322 7.23947C139.487 6.72852 140.752 6.47305 142.116 6.47305C143.43 6.47305 144.62 6.70297 145.687 7.16282C146.778 7.59711 147.707 8.22303 148.476 9.04052C149.244 9.85802 149.84 10.8416 150.262 11.9912C150.707 13.1153 150.931 14.3671 150.931 15.7466C150.931 16.2831 150.894 16.8452 150.819 17.4327H135.682C135.83 19.3487 136.5 20.8943 137.69 22.0695C138.88 23.2191 140.406 23.7939 142.265 23.7939C144.62 23.7939 146.455 22.7465 147.77 20.6517L150.15 22.491C148.266 25.3012 145.624 26.7063 142.227 26.7063ZM142.042 9.34709C140.406 9.34709 139.042 9.84529 137.951 10.8416C136.884 11.8124 136.178 13.1025 135.83 14.712H147.844C147.819 13.9456 147.646 13.2303 147.323 12.566C147.026 11.9017 146.616 11.3398 146.095 10.8799C145.6 10.3945 145.004 10.0241 144.311 9.76862C143.616 9.4876 142.86 9.34709 142.042 9.34709Z" fill="white"/>
<path d="M117.39 23.4419H121.732C122.91 23.4419 123.83 23.1102 124.492 22.4469C125.155 21.7835 125.486 20.916 125.486 19.8445C125.486 18.7729 125.155 17.9182 124.492 17.2804C123.83 16.6425 122.91 16.3236 121.732 16.3236H117.39V23.4419ZM114.41 26.2356V7.10036H117.39V13.5298H122.101C123.057 13.5298 123.928 13.6829 124.713 13.9891C125.498 14.2953 126.173 14.7289 126.737 15.2903C127.301 15.8516 127.73 16.5277 128.024 17.3186C128.343 18.084 128.503 18.9387 128.503 19.8828C128.503 20.8012 128.343 21.6559 128.024 22.4469C127.73 23.2123 127.301 23.8757 126.737 24.437C126.197 24.9982 125.535 25.4447 124.75 25.7764C123.965 26.0826 123.094 26.2356 122.138 26.2356H114.41Z" fill="white"/>
<path d="M91.3765 7.01125H94.3791V10.2789C95.1208 9.07435 96.0719 8.13891 97.2332 7.47257C98.42 6.80622 99.7545 6.47305 101.237 6.47305C102.522 6.47305 103.72 6.72933 104.832 7.2419C105.944 7.75448 106.909 8.45926 107.723 9.35627C108.539 10.2533 109.17 11.3297 109.614 12.5855C110.084 13.8157 110.319 15.1611 110.319 16.622C110.319 18.0828 110.084 19.4411 109.614 20.6969C109.17 21.9271 108.539 22.9906 107.723 23.8876C106.909 24.7847 105.944 25.4895 104.832 26.002C103.72 26.5146 102.522 26.7709 101.237 26.7709C99.7545 26.7709 98.42 26.4377 97.2332 25.7714C96.0719 25.105 95.1208 24.1696 94.3791 22.9651V33.9212H91.3765V7.01125ZM100.829 23.8492C101.793 23.8492 102.67 23.6698 103.461 23.3111C104.252 22.9522 104.931 22.4524 105.499 21.8118C106.068 21.1454 106.501 20.3766 106.797 19.5051C107.119 18.6081 107.279 17.6471 107.279 16.622C107.279 15.5712 107.119 14.6101 106.797 13.7388C106.501 12.8673 106.068 12.1114 105.499 11.4706C104.931 10.8043 104.252 10.2917 103.461 9.93286C102.67 9.57411 101.793 9.39471 100.829 9.39471C99.8652 9.39471 98.9879 9.57411 98.1976 9.93286C97.4064 10.2917 96.7269 10.8043 96.1581 11.4706C95.5902 12.1114 95.1454 12.8673 94.8236 13.7388C94.5274 14.6101 94.3791 15.5712 94.3791 16.622C94.3791 17.6471 94.5274 18.6081 94.8236 19.5051C95.1454 20.3766 95.5902 21.1454 96.1581 21.8118C96.7269 22.4524 97.4064 22.9522 98.1976 23.3111C98.9879 23.6698 99.8652 23.8492 100.829 23.8492Z" fill="white"/>
<path d="M78.6541 26.7063C77.2279 26.7063 75.9246 26.4636 74.7443 25.9782C73.5885 25.4672 72.5927 24.7647 71.7566 23.8706C70.9205 22.9764 70.2689 21.9162 69.8017 20.69C69.3344 19.4637 69.1008 18.1224 69.1008 16.6663C69.1008 15.1846 69.3344 13.8306 69.8017 12.6043C70.2689 11.3525 70.9205 10.2795 71.7566 9.38541C72.6172 8.46572 73.6254 7.7504 74.7812 7.23947C75.9369 6.72852 77.191 6.47305 78.5434 6.47305C79.8468 6.47305 81.0271 6.70297 82.0844 7.16282C83.1664 7.59711 84.0886 8.22303 84.8508 9.04052C85.6131 9.85802 86.2033 10.8416 86.6213 11.9912C87.064 13.1153 87.2852 14.3671 87.2852 15.7466C87.2852 16.2831 87.2484 16.8452 87.1746 17.4327H72.1623C72.3099 19.3487 72.9738 20.8943 74.1541 22.0695C75.3345 23.2191 76.8468 23.7939 78.691 23.7939C81.0271 23.7939 82.8468 22.7465 84.15 20.6517L86.5107 22.491C84.6419 25.3012 82.023 26.7063 78.6541 26.7063ZM78.4697 9.34709C76.8467 9.34709 75.4942 9.84529 74.4123 10.8416C73.3549 11.8124 72.6541 13.1025 72.3099 14.712H84.2238C84.1992 13.9456 84.0271 13.2303 83.7074 12.566C83.4124 11.9017 83.0066 11.3398 82.4901 10.8799C81.9984 10.3945 81.4082 10.0241 80.7197 9.76862C80.0311 9.4876 79.2812 9.34709 78.4697 9.34709Z" fill="white"/>
<path d="M65.0092 7.10036V9.97068H58.6996V26.2356H55.7108V9.97068H49.401V7.10036H65.0092Z" fill="white"/>
<path d="M45.3094 7.10036V26.2356H42.3285V17.51H32.8337V26.2356H29.8527V7.10036H32.8337V14.6397H42.3285V7.10036H45.3094Z" fill="white"/>
<path d="M9.64061 2.69871C10.2296 2.17909 10.3819 1.36435 9.98085 0.878924C9.57975 0.393504 8.7772 0.421227 8.18823 0.940845C7.59924 1.46046 7.44692 2.27521 7.84799 2.76063C8.24906 3.24604 9.05166 3.21832 9.64061 2.69871Z" fill="white"/>
<path d="M22.1834 18.876C22.1834 18.876 22.4104 25.839 25.1816 25.2696C25.1816 25.2696 15.2298 29.8011 16.4614 18.7059C16.4614 18.7059 16.7452 15.4493 14.3206 14.9007C14.3206 14.9007 12.5775 14.5508 10.1534 18.876C10.1534 18.876 6.71716 25.0562 4.37919 26.3717C4.37919 26.3717 -0.0818094 28.9531 0.82374 20.8427C0.82374 20.8427 1.36822 15.2583 6.75122 4.24303C6.75122 4.24303 7.2415 3.20432 8.21603 3.60448C8.37456 3.66957 8.46881 3.83343 8.4844 4.00885C8.49734 4.15454 8.48204 4.30144 8.43939 4.44097L8.32892 4.80237C8.32892 4.80237 4.24341 13.2535 4.84956 16.6257C4.84956 16.6257 5.15264 19.2921 6.89531 18.876C6.89531 18.876 9.77452 17.6452 12.5021 13.1754C12.5021 13.1754 16.5239 6.89351 19.7719 6.85817C19.7719 6.85817 22.5337 6.54714 22.6625 11.773C22.6625 11.773 21.9762 17.847 22.1834 18.876Z" fill="white"/>
<path d="M202.27 25.6717V26.7063H187.785V25.6717H202.27ZM211.004 16.5897C211.004 11.5739 207.094 7.50771 202.27 7.50771H187.785C182.961 7.50771 179.05 11.5739 179.05 16.5897C179.05 21.6055 182.961 25.6717 187.785 25.6717V26.7063L187.66 26.7054C182.344 26.6354 178.055 22.1333 178.055 16.5897C178.055 11.0024 182.412 6.47305 187.785 6.47305H202.27C207.644 6.47305 211.999 11.0024 211.999 16.5897C211.999 22.1333 207.711 26.6354 202.396 26.7054L202.27 26.7063V25.6717C207.094 25.6717 211.004 21.6055 211.004 16.5897Z" fill="white"/>
<path d="M200.691 6.47305H201.941V12.2662C202.574 12.288 203.145 12.4137 203.652 12.643C204.168 12.8615 204.606 13.1673 204.965 13.5605C205.325 13.9427 205.599 14.3905 205.789 14.9039C205.989 15.4172 206.09 15.9742 206.09 16.5749C206.09 17.1757 205.989 17.7327 205.789 18.246C205.599 18.7593 205.325 19.2125 204.965 19.6057C204.606 19.9881 204.168 20.2938 203.652 20.5232C203.145 20.7417 202.574 20.8618 201.941 20.8836V26.7063H200.691V20.8836C200.058 20.8618 199.483 20.7417 198.965 20.5232C198.458 20.2938 198.026 19.9881 197.667 19.6057C197.309 19.2125 197.028 18.7593 196.828 18.246C196.638 17.7327 196.543 17.1757 196.543 16.5749C196.543 15.9742 196.638 15.4172 196.828 14.9039C197.028 14.3905 197.309 13.9427 197.667 13.5605C198.026 13.1673 198.458 12.8615 198.965 12.643C199.483 12.4137 200.058 12.288 200.691 12.2662V6.47305ZM201.941 19.6549C202.363 19.644 202.749 19.5621 203.098 19.4091C203.457 19.2562 203.762 19.0433 204.016 18.7703C204.269 18.4971 204.465 18.175 204.602 17.8037C204.749 17.4323 204.823 17.0228 204.823 16.5749C204.823 16.1271 204.749 15.7176 204.602 15.3462C204.465 14.9748 204.269 14.6526 204.016 14.3796C203.762 14.1065 203.457 13.8936 203.098 13.7406C202.749 13.5877 202.363 13.5058 201.941 13.495V19.6549ZM200.691 13.495C200.269 13.5058 199.878 13.5877 199.519 13.7406C199.171 13.8936 198.87 14.1065 198.617 14.3796C198.364 14.6526 198.163 14.9748 198.016 15.3462C197.878 15.7176 197.809 16.1271 197.809 16.5749C197.809 17.0228 197.878 17.4323 198.016 17.8037C198.163 18.175 198.364 18.4971 198.617 18.7703C198.87 19.0433 199.171 19.2562 199.519 19.4091C199.878 19.5621 200.269 19.644 200.691 19.6549V13.495Z" fill="white"/>
<path d="M187.451 12.5051H188.724V13.8934C189.038 13.3816 189.442 12.9842 189.934 12.7011C190.437 12.418 191.003 12.2764 191.632 12.2764C192.176 12.2764 192.684 12.3854 193.156 12.6031C193.628 12.8209 194.036 13.1203 194.382 13.5014C194.728 13.8825 194.995 14.3398 195.184 14.8733C195.383 15.396 195.482 15.9675 195.482 16.5882C195.482 17.2088 195.383 17.7859 195.184 18.3194C194.995 18.8421 194.728 19.2939 194.382 19.675C194.036 20.0561 193.628 20.3555 193.156 20.5733C192.684 20.7911 192.176 20.8999 191.632 20.8999C191.003 20.8999 190.437 20.7583 189.934 20.4752C189.442 20.1921 189.038 19.7948 188.724 19.283V26.7063H187.451V12.5051ZM191.459 19.6586C191.868 19.6586 192.24 19.5824 192.575 19.43C192.91 19.2776 193.198 19.0652 193.439 18.7931C193.68 18.51 193.864 18.1833 193.989 17.8131C194.125 17.432 194.193 17.0237 194.193 16.5882C194.193 16.1418 194.125 15.7334 193.989 15.3632C193.864 14.993 193.68 14.6718 193.439 14.3997C193.198 14.1166 192.91 13.8988 192.575 13.7464C192.24 13.5939 191.868 13.5177 191.459 13.5177C191.05 13.5177 190.678 13.5939 190.343 13.7464C190.008 13.8988 189.719 14.1166 189.478 14.3997C189.237 14.6718 189.049 14.993 188.913 15.3632C188.787 15.7334 188.724 16.1418 188.724 16.5882C188.724 17.0237 188.787 17.432 188.913 17.8131C189.049 18.1833 189.237 18.51 189.478 18.7931C189.719 19.0652 190.008 19.2776 190.343 19.43C190.678 19.5824 191.05 19.6586 191.459 19.6586Z" fill="white"/>
<path d="M182.45 17.766C182.106 17.766 181.815 17.6567 181.576 17.4381C181.351 17.2067 181.238 16.9239 181.238 16.5896C181.238 16.2553 181.351 15.9789 181.576 15.7604C181.815 15.529 182.106 15.4133 182.45 15.4133C182.794 15.4133 183.079 15.529 183.304 15.7604C183.543 15.9789 183.662 16.2553 183.662 16.5896C183.662 16.9239 183.543 17.2067 183.304 17.4381C183.079 17.6567 182.794 17.766 182.45 17.766Z" fill="white"/>
</g>

</symbol>
<symbol id="logo2" viewBox="0 0 212 48">
<g clip-path="url(#clip0_1_1580)">
<path d="M212 39.5824V45.5346H210.756V43.6298H209.57L208.464 45.5346H207.026L208.315 43.4156C207.981 43.2568 207.718 43.0227 207.528 42.7132C207.346 42.3958 207.254 42.0267 207.254 41.6061C207.254 41.3124 207.304 41.0426 207.403 40.7966C207.501 40.5427 207.639 40.3283 207.814 40.1538C207.996 39.9713 208.213 39.8324 208.464 39.7371C208.715 39.6339 208.992 39.5824 209.297 39.5824H212ZM210.756 40.7252H209.456C209.16 40.7252 208.924 40.8085 208.749 40.9751C208.581 41.1339 208.498 41.3442 208.498 41.6061C208.498 41.868 208.581 42.0823 208.749 42.2489C208.924 42.4077 209.16 42.4871 209.456 42.4871H210.756V40.7252Z" fill="#642A38"/>
<path d="M196.613 39.5824H197.915V43.5466L200.44 39.5824H201.742V45.5346H200.44V41.5704L197.904 45.5346H196.613V39.5824Z" fill="#642A38"/>
<path d="M185.578 45.4929V39.5824H186.872V44.2635H189.291V39.5824H190.575V44.2635H191.483V46.9824H190.211V45.4929H185.578Z" fill="#642A38"/>
<path d="M178.577 44.7212C178.156 45.3708 177.528 45.6956 176.694 45.6956C176.396 45.6956 176.121 45.652 175.869 45.5649C175.624 45.4777 175.414 45.355 175.238 45.1965C175.069 45.0302 174.935 44.8361 174.835 44.6143C174.744 44.3845 174.698 44.135 174.698 43.8657C174.698 43.2716 174.916 42.8082 175.352 42.4754C175.789 42.1348 176.411 41.9487 177.222 41.9169L178.577 41.8576V41.7862C178.577 41.3981 178.462 41.0931 178.232 40.8713C178.003 40.6495 177.689 40.5385 177.291 40.5385C176.664 40.5385 176.201 40.8396 175.903 41.4416L174.859 40.907C175.096 40.4317 175.425 40.0673 175.845 39.8137C176.266 39.5524 176.767 39.4216 177.349 39.4216C177.732 39.4216 178.075 39.4771 178.382 39.5879C178.687 39.6989 178.948 39.8613 179.162 40.0752C179.375 40.2811 179.54 40.5307 179.655 40.8238C179.77 41.1169 179.827 41.4456 179.827 41.8101V45.5293H178.577V44.7212ZM176.982 44.5667C177.219 44.5667 177.432 44.5271 177.624 44.4479C177.823 44.3687 177.991 44.2579 178.129 44.1152C178.274 43.9726 178.386 43.8023 178.462 43.6043C178.538 43.4062 178.577 43.1884 178.577 42.9507V42.8438L177.303 42.8913C176.415 42.9388 175.972 43.2319 175.972 43.7706C175.972 44.0162 176.06 44.2102 176.235 44.3529C176.419 44.4955 176.668 44.5667 176.982 44.5667Z" fill="#642A38"/>
<path d="M169.879 39.5824V40.8204H168.047V45.5346H166.726V40.8204H164.906V39.5824H169.879Z" fill="#642A38"/>
<path d="M156.394 41.8561H157.146L158.762 39.5824H160.188L158.134 42.4156L160.243 45.5346H158.774L157.124 43.0584H156.394V45.5346H155.115V39.5824H156.394V41.8561Z" fill="#642A38"/>
<path d="M147.085 45.6956C146.645 45.6956 146.239 45.6204 145.867 45.4698C145.495 45.3114 145.177 45.0935 144.911 44.8163C144.652 44.539 144.448 44.2102 144.295 43.8301C144.152 43.4498 144.08 43.0299 144.08 42.5705C144.08 42.1111 144.152 41.6912 144.295 41.311C144.448 40.9228 144.652 40.5901 144.911 40.3128C145.177 40.0277 145.492 39.8098 145.856 39.6593C146.22 39.5009 146.619 39.4216 147.051 39.4216C147.461 39.4216 147.837 39.4929 148.179 39.6356C148.52 39.7781 148.813 39.9801 149.056 40.2415C149.307 40.495 149.496 40.8 149.626 41.1565C149.762 41.5129 149.83 41.909 149.83 42.3447C149.83 42.4319 149.826 42.523 149.819 42.618C149.811 42.713 149.8 42.8161 149.785 42.927H145.367C145.435 43.4182 145.62 43.8063 145.924 44.0914C146.236 44.3687 146.63 44.5074 147.108 44.5074C147.784 44.5074 148.293 44.2143 148.635 43.6281L149.568 44.3885C149.288 44.8163 148.939 45.1411 148.52 45.3629C148.103 45.5847 147.625 45.6956 147.085 45.6956ZM147.029 40.5742C146.619 40.5742 146.27 40.697 145.981 40.9426C145.7 41.1803 145.507 41.505 145.401 41.9169H148.532C148.494 41.5129 148.339 41.1882 148.065 40.9426C147.791 40.697 147.446 40.5742 147.029 40.5742Z" fill="#642A38"/>
<path d="M133.044 44.2211H133.137C133.331 44.2211 133.489 44.1895 133.613 44.1264C133.744 44.0554 133.846 43.9292 133.915 43.7477C133.992 43.5663 134.046 43.3178 134.077 43.0023C134.109 42.6788 134.124 42.2685 134.124 41.7716V39.5824H138.639V45.4991H137.316V40.8131H135.401V41.9964C135.401 42.6354 135.366 43.1798 135.296 43.6294C135.226 44.0712 135.11 44.4341 134.948 44.7181C134.785 45.0021 134.565 45.2111 134.287 45.3452C134.007 45.4715 133.659 45.5346 133.242 45.5346H133.044V44.2211Z" fill="#642A38"/>
<path d="M122.786 39.5824H127.915V45.5346H126.609V40.8204H124.103V45.5346H122.786V39.5824Z" fill="#642A38"/>
<path d="M115.534 39.5824H117.035V45.5346H115.859V41.3919L114.302 44.7132H113.552L111.995 41.3919V45.5346H110.818V39.5824H112.341L113.943 43.0942L115.534 39.5824Z" fill="#642A38"/>
<path d="M102.348 45.6956C101.902 45.6956 101.495 45.6164 101.127 45.458C100.758 45.2996 100.439 45.0817 100.17 44.8044C99.9013 44.5192 99.6903 44.1865 99.536 43.8063C99.3903 43.4261 99.3174 43.0102 99.3174 42.5587C99.3174 42.1071 99.3903 41.6912 99.536 41.311C99.6903 40.9307 99.9013 40.6019 100.17 40.3247C100.439 40.0395 100.758 39.8178 101.127 39.6593C101.495 39.5009 101.902 39.4216 102.348 39.4216C102.794 39.4216 103.201 39.5009 103.57 39.6593C103.939 39.8178 104.257 40.0395 104.527 40.3247C104.795 40.6019 105.003 40.9307 105.148 41.311C105.302 41.6912 105.379 42.1071 105.379 42.5587C105.379 43.0102 105.302 43.4261 105.148 43.8063C105.003 44.1865 104.795 44.5192 104.527 44.8044C104.257 45.0817 103.939 45.2996 103.57 45.458C103.201 45.6164 102.794 45.6956 102.348 45.6956ZM102.348 44.4479C102.594 44.4479 102.821 44.4004 103.028 44.3054C103.243 44.2102 103.424 44.0796 103.57 43.9132C103.723 43.7469 103.842 43.5488 103.926 43.3191C104.012 43.0815 104.053 42.8279 104.053 42.5587C104.053 42.2813 104.012 42.0278 103.926 41.7981C103.842 41.5684 103.723 41.3704 103.57 41.204C103.424 41.0376 103.243 40.907 103.028 40.8118C102.821 40.7168 102.594 40.6693 102.348 40.6693C102.103 40.6693 101.872 40.7168 101.657 40.8118C101.45 40.907 101.269 41.0376 101.115 41.204C100.969 41.3704 100.853 41.5684 100.769 41.7981C100.685 42.0278 100.642 42.2813 100.642 42.5587C100.642 42.8279 100.685 43.0815 100.769 43.3191C100.853 43.5488 100.969 43.7469 101.115 43.9132C101.269 44.0796 101.45 44.2102 101.657 44.3054C101.872 44.4004 102.103 44.4479 102.348 44.4479Z" fill="#642A38"/>
<path d="M90.8441 41.8561H91.6188L93.284 39.5824H94.7527L92.6364 42.4156L94.8105 45.5346H93.2955L91.5957 43.0584H90.8441V45.5346H89.5259V39.5824H90.8441V41.8561Z" fill="#642A38"/>
<path d="M71.4961 39.5824H72.8378V43.5466L75.4388 39.5824H76.7805V45.5346H75.4388V41.5704L72.826 45.5346H71.4961V39.5824Z" fill="#642A38"/>
<path d="M58.5953 39.5824V45.5346H57.29V42.9989H54.7832V45.5346H53.4663V39.5824H54.7832V41.7727H57.29V39.5824H58.5953Z" fill="#642A38"/>
<path d="M42.7417 39.5846H44.044V43.5473L46.5685 39.5846H47.8708V45.5346H46.5685V41.5719L44.0325 45.5346H42.7417V39.5846ZM45.3119 38.7516C44.7332 38.7516 44.2572 38.6048 43.884 38.3112C43.5109 38.0098 43.2786 37.5933 43.1873 37.0618L44.2839 36.8475C44.3295 37.1411 44.44 37.3632 44.6152 37.514C44.7902 37.6647 45.0226 37.74 45.3119 37.74C45.8983 37.74 46.2372 37.4425 46.3286 36.8475L47.4253 37.0618C47.3339 37.5933 47.1016 38.0098 46.7284 38.3112C46.3553 38.6048 45.8831 38.7516 45.3119 38.7516Z" fill="#642A38"/>
<path d="M35.7788 44.7212C35.3709 45.3708 34.7626 45.6956 33.9541 45.6956C33.6648 45.6956 33.3978 45.652 33.1529 45.5649C32.9156 45.4777 32.7116 45.355 32.541 45.1965C32.3778 45.0302 32.248 44.8361 32.1515 44.6143C32.0625 44.3845 32.0181 44.135 32.0181 43.8657C32.0181 43.2716 32.2294 42.8082 32.6523 42.4754C33.075 42.1348 33.6796 41.9487 34.4659 41.9169L35.7788 41.8576V41.7862C35.7788 41.3981 35.6676 41.0931 35.445 40.8713C35.2225 40.6495 34.9184 40.5385 34.5326 40.5385C33.9244 40.5385 33.4757 40.8396 33.1863 41.4416L32.1738 40.907C32.4037 40.4317 32.7227 40.0673 33.1307 39.8137C33.5387 39.5524 34.0245 39.4216 34.5883 39.4216C34.9592 39.4216 35.293 39.4771 35.5897 39.5879C35.8864 39.6989 36.1386 39.8613 36.3463 40.0752C36.554 40.2811 36.7135 40.5307 36.8247 40.8238C36.936 41.1169 36.9916 41.4456 36.9916 41.8101V45.5293H35.7788V44.7212ZM34.2322 44.5667C34.4622 44.5667 34.6699 44.5271 34.8554 44.4479C35.0482 44.3687 35.2114 44.2579 35.3449 44.1152C35.4858 43.9726 35.5934 43.8023 35.6676 43.6043C35.7417 43.4062 35.7788 43.1884 35.7788 42.9507V42.8438L34.5438 42.8913C33.6833 42.9388 33.2531 43.2319 33.2531 43.7706C33.2531 44.0162 33.3384 44.2102 33.509 44.3529C33.687 44.4955 33.9281 44.5667 34.2322 44.5667Z" fill="#642A38"/>
<path d="M24.5962 45.6956C23.9582 45.6956 23.4316 45.545 23.0162 45.2441C22.6008 44.9431 22.2854 44.5153 22.0703 43.9607L23.1385 43.5093C23.3759 44.2143 23.8544 44.5667 24.574 44.5667C24.9153 44.5667 25.1897 44.4915 25.3974 44.341C25.6051 44.1905 25.709 43.9845 25.709 43.7231C25.709 43.4934 25.6274 43.3151 25.4642 43.1884C25.3084 43.0617 25.0896 42.9983 24.8077 42.9983H23.6727V41.9051H24.7854C25.0377 41.9051 25.2342 41.8496 25.3751 41.7387C25.5162 41.6199 25.5866 41.4654 25.5866 41.2753C25.5866 41.0535 25.4938 40.8752 25.3084 40.7406C25.1304 40.598 24.8856 40.5267 24.574 40.5267C23.9286 40.5267 23.4909 40.8396 23.261 41.4654L22.2261 41.002C22.4487 40.4792 22.764 40.087 23.172 39.8256C23.5873 39.5563 24.0807 39.4216 24.6519 39.4216C25.2973 39.4216 25.8092 39.5801 26.1875 39.8969C26.5732 40.2059 26.7661 40.6178 26.7661 41.1327C26.7661 41.7665 26.4694 42.1982 25.8759 42.4279C26.1949 42.5388 26.4434 42.721 26.6214 42.9745C26.7995 43.2201 26.8885 43.5211 26.8885 43.8776C26.8885 44.1469 26.8328 44.3965 26.7216 44.6262C26.6103 44.848 26.4545 45.0381 26.2543 45.1965C26.0539 45.355 25.8129 45.4777 25.5309 45.5649C25.2491 45.652 24.9375 45.6956 24.5962 45.6956Z" fill="#642A38"/>
<path d="M11.6572 39.5824H12.9989V43.5466L15.6 39.5824H16.9417V45.5346H15.6V41.5704L12.9871 45.5346H11.6572V39.5824Z" fill="#642A38"/>
<path d="M0.000488281 44.2635H0.556049C0.648643 44.1532 0.725804 44.0114 0.787533 43.838C0.849262 43.6646 0.899417 43.4519 0.937997 43.1996C0.97658 42.9395 1.00358 42.6322 1.01902 42.2776C1.04217 41.9229 1.05374 41.5131 1.05374 41.0481V39.5824H5.60239V44.2635H6.52833V46.9824H5.23203V45.4929H1.29679V46.9824H0.000488281V44.2635ZM4.29451 44.2635V40.8118H2.33847V41.3201C2.33847 41.6904 2.33076 42.0215 2.31532 42.3131C2.29989 42.6046 2.27675 42.8686 2.24588 43.1051C2.21502 43.3336 2.17258 43.5425 2.11857 43.7316C2.06456 43.9207 2.00282 44.0981 1.93338 44.2635H4.29451Z" fill="#642A38"/>
<path d="M212 39.666V45.6183H210.756V43.7136H209.57L208.464 45.6183H207.026L208.315 43.4993C207.981 43.3406 207.718 43.1064 207.528 42.7969C207.346 42.4795 207.254 42.1104 207.254 41.6899C207.254 41.3962 207.304 41.1263 207.403 40.8803C207.501 40.6263 207.639 40.4121 207.814 40.2375C207.996 40.0549 208.213 39.916 208.464 39.8208C208.715 39.7176 208.992 39.666 209.297 39.666H212ZM210.756 40.8089H209.456C209.16 40.8089 208.924 40.8922 208.749 41.0589C208.581 41.2176 208.498 41.4279 208.498 41.6899C208.498 41.9517 208.581 42.166 208.749 42.3327C208.924 42.4914 209.16 42.5707 209.456 42.5707H210.756V40.8089Z" fill="#333333"/>
<path d="M196.613 39.666H197.915V43.6302L200.44 39.666H201.742V45.6183H200.44V41.6541L197.904 45.6183H196.613V39.666Z" fill="#333333"/>
<path d="M185.578 45.5767V39.666H186.872V44.3473H189.291V39.666H190.575V44.3473H191.483V47.0662H190.211V45.5767H185.578Z" fill="#333333"/>
<path d="M178.577 44.805C178.156 45.4545 177.528 45.7794 176.694 45.7794C176.396 45.7794 176.121 45.7358 175.869 45.6486C175.624 45.5615 175.414 45.4387 175.238 45.2803C175.069 45.1139 174.935 44.9198 174.835 44.698C174.744 44.4683 174.698 44.2188 174.698 43.9494C174.698 43.3553 174.916 42.8918 175.352 42.5592C175.789 42.2185 176.411 42.0323 177.222 42.0007L178.577 41.9412V41.87C178.577 41.4818 178.462 41.1768 178.232 40.955C178.003 40.7332 177.689 40.6223 177.291 40.6223C176.664 40.6223 176.201 40.9233 175.903 41.5254L174.859 40.9906C175.096 40.5153 175.425 40.1509 175.845 39.8975C176.266 39.636 176.767 39.5054 177.349 39.5054C177.732 39.5054 178.075 39.5608 178.382 39.6717C178.687 39.7826 178.948 39.945 179.162 40.1589C179.375 40.3649 179.54 40.6144 179.655 40.9075C179.77 41.2006 179.827 41.5293 179.827 41.8937V45.6129H178.577V44.805ZM176.982 44.6505C177.219 44.6505 177.432 44.6109 177.624 44.5317C177.823 44.4524 177.991 44.3415 178.129 44.199C178.275 44.0564 178.386 43.886 178.462 43.688C178.538 43.49 178.577 43.2721 178.577 43.0344V42.9275L177.303 42.9751C176.415 43.0226 175.972 43.3157 175.972 43.8544C175.972 44.1 176.06 44.294 176.236 44.4366C176.419 44.5792 176.668 44.6505 176.982 44.6505Z" fill="#333333"/>
<path d="M169.879 39.666V40.9041H168.047V45.6183H166.726V40.9041H164.906V39.666H169.879Z" fill="#333333"/>
<path d="M156.393 41.9399H157.146L158.762 39.666H160.188L158.133 42.4993L160.243 45.6183H158.773L157.123 43.1422H156.393V45.6183H155.115V39.666H156.393V41.9399Z" fill="#333333"/>
<path d="M147.085 45.7794C146.645 45.7794 146.239 45.704 145.867 45.5536C145.495 45.3952 145.177 45.1773 144.911 44.9C144.652 44.6228 144.448 44.294 144.295 43.9137C144.152 43.5336 144.08 43.1137 144.08 42.6542C144.08 42.1947 144.152 41.7749 144.295 41.3947C144.448 41.0065 144.652 40.6738 144.911 40.3965C145.177 40.1113 145.492 39.8935 145.856 39.743C146.22 39.5845 146.619 39.5054 147.051 39.5054C147.461 39.5054 147.837 39.5766 148.179 39.7192C148.52 39.8618 148.813 40.0638 149.056 40.3252C149.307 40.5787 149.496 40.8838 149.626 41.2402C149.762 41.5967 149.83 41.9928 149.83 42.4285C149.83 42.5156 149.826 42.6067 149.819 42.7018C149.811 42.7968 149.8 42.8998 149.785 43.0106H145.367C145.435 43.5018 145.62 43.89 145.924 44.1752C146.236 44.4524 146.63 44.591 147.108 44.591C147.784 44.591 148.293 44.2979 148.635 43.7117L149.568 44.4722C149.288 44.9 148.939 45.2248 148.52 45.4466C148.103 45.6684 147.625 45.7794 147.085 45.7794ZM147.029 40.658C146.619 40.658 146.27 40.7807 145.981 41.0263C145.7 41.2639 145.507 41.5888 145.401 42.0007H148.532C148.494 41.5967 148.339 41.2719 148.065 41.0263C147.791 40.7807 147.446 40.658 147.029 40.658Z" fill="#333333"/>
<path d="M133.044 44.3048H133.137C133.331 44.3048 133.489 44.2732 133.613 44.2101C133.744 44.1391 133.846 44.0129 133.915 43.8314C133.992 43.65 134.046 43.4015 134.077 43.086C134.109 42.7625 134.124 42.3523 134.124 41.8552V39.666H138.639V45.5827H137.316V40.8968H135.401V42.0801C135.401 42.7191 135.366 43.2635 135.296 43.7131C135.226 44.1549 135.11 44.5177 134.948 44.8018C134.785 45.0858 134.565 45.2948 134.287 45.429C134.007 45.5551 133.659 45.6183 133.242 45.6183H133.044V44.3048Z" fill="#333333"/>
<path d="M122.786 39.666H127.915V45.6183H126.609V40.9041H124.103V45.6183H122.786V39.666Z" fill="#333333"/>
<path d="M115.533 39.666H117.034V45.6183H115.858V41.4755L114.301 44.7969H113.551L111.994 41.4755V45.6183H110.817V39.666H112.341L113.943 43.1779L115.533 39.666Z" fill="#333333"/>
<path d="M102.348 45.7794C101.902 45.7794 101.495 45.7001 101.126 45.5417C100.758 45.3832 100.439 45.1654 100.17 44.8881C99.9003 44.603 99.6893 44.2702 99.536 43.89C99.3902 43.5097 99.3164 43.0939 99.3164 42.6423C99.3164 42.1908 99.3902 41.7749 99.536 41.3947C99.6893 41.0144 99.9003 40.6857 100.17 40.4085C100.439 40.1232 100.758 39.9014 101.126 39.743C101.495 39.5845 101.902 39.5054 102.348 39.5054C102.794 39.5054 103.201 39.5845 103.57 39.743C103.938 39.9014 104.257 40.1232 104.526 40.4085C104.794 40.6857 105.002 41.0144 105.148 41.3947C105.302 41.7749 105.378 42.1908 105.378 42.6423C105.378 43.0939 105.302 43.5097 105.148 43.89C105.002 44.2702 104.794 44.603 104.526 44.8881C104.257 45.1654 103.938 45.3832 103.57 45.5417C103.201 45.7001 102.794 45.7794 102.348 45.7794ZM102.348 44.5317C102.594 44.5317 102.82 44.4841 103.027 44.389C103.243 44.294 103.423 44.1633 103.57 43.9969C103.723 43.8306 103.842 43.6326 103.926 43.4028C104.011 43.1651 104.053 42.9117 104.053 42.6423C104.053 42.3651 104.011 42.1116 103.926 41.8819C103.842 41.6521 103.723 41.4541 103.57 41.2877C103.423 41.1214 103.243 40.9906 103.027 40.8956C102.82 40.8005 102.594 40.753 102.348 40.753C102.102 40.753 101.872 40.8005 101.656 40.8956C101.449 40.9906 101.268 41.1214 101.115 41.2877C100.969 41.4541 100.853 41.6521 100.769 41.8819C100.684 42.1116 100.642 42.3651 100.642 42.6423C100.642 42.9117 100.684 43.1651 100.769 43.4028C100.853 43.6326 100.969 43.8306 101.115 43.9969C101.268 44.1633 101.449 44.294 101.656 44.389C101.872 44.4841 102.102 44.5317 102.348 44.5317Z" fill="#333333"/>
<path d="M90.8436 41.9399H91.6183L93.2835 39.666H94.7518L92.6359 42.4993L94.8095 45.6183H93.295L91.5952 43.1422H90.8436V45.6183H89.5254V39.666H90.8436V41.9399Z" fill="#333333"/>
<path d="M71.4961 39.666H72.8378V43.6302L75.4388 39.666H76.7805V45.6183H75.4388V41.6541L72.826 45.6183H71.4961V39.666Z" fill="#333333"/>
<path d="M58.5948 39.666V45.6183H57.2895V43.0826H54.7827V45.6183H53.4658V39.666H54.7827V41.8565H57.2895V39.666H58.5948Z" fill="#333333"/>
<path d="M42.7412 39.6683H44.0435V43.631L46.568 39.6683H47.8703V45.6183H46.568V41.6556L44.032 45.6183H42.7412V39.6683ZM45.3115 38.8353C44.7327 38.8353 44.2567 38.6885 43.8836 38.395C43.5104 38.0935 43.2781 37.6771 43.1868 37.1454L44.2834 36.9313C44.3291 37.2248 44.4395 37.447 44.6147 37.5977C44.7898 37.7484 45.0221 37.8238 45.3115 37.8238C45.8978 37.8238 46.2368 37.5263 46.3282 36.9313L47.4248 37.1454C47.3334 37.6771 47.1011 38.0935 46.7279 38.395C46.3548 38.6885 45.8826 38.8353 45.3115 38.8353Z" fill="#333333"/>
<path d="M35.7788 44.805C35.3709 45.4545 34.7626 45.7794 33.9541 45.7794C33.6648 45.7794 33.3978 45.7358 33.1529 45.6486C32.9156 45.5615 32.7116 45.4387 32.541 45.2803C32.3778 45.1139 32.248 44.9198 32.1515 44.698C32.0625 44.4683 32.0181 44.2188 32.0181 43.9494C32.0181 43.3553 32.2294 42.8918 32.6523 42.5592C33.075 42.2185 33.6796 42.0323 34.4659 42.0007L35.7788 41.9412V41.87C35.7788 41.4818 35.6676 41.1768 35.4451 40.955C35.2225 40.7332 34.9184 40.6223 34.5326 40.6223C33.9244 40.6223 33.4757 40.9233 33.1863 41.5254L32.1738 40.9906C32.4037 40.5153 32.7227 40.1509 33.1307 39.8975C33.5387 39.636 34.0245 39.5054 34.5883 39.5054C34.9592 39.5054 35.293 39.5608 35.5897 39.6717C35.8864 39.7826 36.1386 39.945 36.3463 40.1589C36.554 40.3649 36.7135 40.6144 36.8247 40.9075C36.936 41.2006 36.9916 41.5293 36.9916 41.8937V45.6129H35.7788V44.805ZM34.2322 44.6505C34.4622 44.6505 34.6699 44.6109 34.8554 44.5317C35.0482 44.4524 35.2114 44.3415 35.3449 44.199C35.4859 44.0564 35.5934 43.886 35.6676 43.688C35.7418 43.49 35.7788 43.2721 35.7788 43.0344V42.9275L34.5438 42.9751C33.6833 43.0226 33.2531 43.3157 33.2531 43.8544C33.2531 44.1 33.3384 44.294 33.509 44.4366C33.687 44.5792 33.9281 44.6505 34.2322 44.6505Z" fill="#333333"/>
<path d="M24.5957 45.7794C23.9579 45.7794 23.4311 45.6288 23.0157 45.3278C22.6003 45.0267 22.2849 44.599 22.0698 44.0445L23.1381 43.5929C23.3755 44.2979 23.8539 44.6505 24.5735 44.6505C24.9148 44.6505 25.1893 44.5753 25.397 44.4247C25.6046 44.2742 25.7086 44.0682 25.7086 43.8069C25.7086 43.577 25.627 43.3989 25.4637 43.2721C25.3079 43.1453 25.0891 43.082 24.8072 43.082H23.6722V41.9888H24.7849C25.0372 41.9888 25.2337 41.9334 25.3748 41.8224C25.5157 41.7036 25.5861 41.5491 25.5861 41.3591C25.5861 41.1372 25.4934 40.959 25.3079 40.8243C25.1299 40.6817 24.8851 40.6105 24.5735 40.6105C23.9281 40.6105 23.4905 40.9233 23.2605 41.5491L22.2256 41.0857C22.4482 40.5628 22.7635 40.1708 23.1715 39.9094C23.5869 39.64 24.0802 39.5054 24.6514 39.5054C25.2969 39.5054 25.8087 39.6638 26.187 39.9807C26.5727 40.2896 26.7656 40.7016 26.7656 41.2164C26.7656 41.8501 26.4689 42.2819 25.8754 42.5116C26.1945 42.6225 26.443 42.8047 26.621 43.0583C26.799 43.3038 26.888 43.6049 26.888 43.9613C26.888 44.2306 26.8324 44.4801 26.7211 44.7098C26.6098 44.9317 26.4541 45.1219 26.2538 45.2803C26.0534 45.4387 25.8124 45.5615 25.5305 45.6486C25.2486 45.7358 24.937 45.7794 24.5957 45.7794Z" fill="#333333"/>
<path d="M11.6567 39.666H12.9985V43.6302L15.5995 39.666H16.9412V45.6183H15.5995V41.6541L12.9867 45.6183H11.6567V39.666Z" fill="#333333"/>
<path d="M0 44.3473H0.555562C0.648156 44.2369 0.725317 44.0951 0.787046 43.9217C0.848776 43.7483 0.89893 43.5355 0.937511 43.2834C0.97609 43.0233 1.0031 42.7159 1.01853 42.3613C1.04168 42.0067 1.05325 41.5969 1.05325 41.1319V39.666H5.60192V44.3473H6.52786V47.0662H5.23154V45.5767H1.29631V47.0662H0V44.3473ZM4.29403 44.3473V40.8955H2.33799V41.4038C2.33799 41.7742 2.33028 42.1052 2.31484 42.3967C2.29941 42.6884 2.27626 42.9524 2.2454 43.1887C2.21453 43.4173 2.17209 43.6261 2.11808 43.8153C2.06407 44.0044 2.00234 44.1817 1.93289 44.3473H4.29403Z" fill="#333333"/>
<path d="M155.022 7.01125H158.024V10.2789C158.766 9.07435 159.717 8.13891 160.878 7.47257C162.065 6.80622 163.4 6.47305 164.882 6.47305C166.167 6.47305 167.365 6.72934 168.477 7.24191C169.589 7.75448 170.554 8.45927 171.369 9.35627C172.185 10.2533 172.815 11.3297 173.26 12.5855C173.729 13.8157 173.964 15.1611 173.964 16.622C173.964 18.0828 173.729 19.4411 173.26 20.6969C172.815 21.9271 172.185 22.9906 171.369 23.8876C170.554 24.7847 169.589 25.4895 168.477 26.002C167.365 26.5146 166.167 26.7709 164.882 26.7709C163.4 26.7709 162.065 26.4377 160.878 25.7714C159.717 25.105 158.766 24.1696 158.024 22.9651V33.9212H155.022V7.01125ZM164.474 23.8492C165.438 23.8492 166.316 23.6698 167.106 23.3111C167.897 22.9522 168.577 22.4524 169.145 21.8118C169.713 21.1454 170.146 20.3766 170.442 19.5051C170.764 18.6081 170.924 17.6471 170.924 16.622C170.924 15.5712 170.764 14.6101 170.442 13.7388C170.146 12.8673 169.713 12.1114 169.145 11.4706C168.577 10.8043 167.897 10.2917 167.106 9.93287C166.316 9.57411 165.438 9.39471 164.474 9.39471C163.51 9.39471 162.633 9.57411 161.843 9.93287C161.052 10.2917 160.372 10.8043 159.803 11.4706C159.235 12.1114 158.791 12.8673 158.469 13.7388C158.173 14.6101 158.024 15.5712 158.024 16.622C158.024 17.6471 158.173 18.6081 158.469 19.5051C158.791 20.3766 159.235 21.1454 159.803 21.8118C160.372 22.4524 161.052 22.9522 161.843 23.3111C162.633 23.6698 163.51 23.8492 164.474 23.8492Z" fill="#333333"/>
<path d="M142.227 26.7063C140.79 26.7063 139.475 26.4636 138.286 25.9782C137.12 25.4672 136.115 24.7647 135.273 23.8706C134.43 22.9764 133.773 21.9162 133.302 20.69C132.83 19.4637 132.595 18.1225 132.595 16.6663C132.595 15.1846 132.83 13.8306 133.302 12.6043C133.773 11.3525 134.43 10.2795 135.273 9.38541C136.141 8.46572 137.157 7.7504 138.322 7.23947C139.488 6.72852 140.752 6.47305 142.116 6.47305C143.43 6.47305 144.62 6.70297 145.687 7.16282C146.778 7.59712 147.707 8.22303 148.476 9.04053C149.244 9.85803 149.84 10.8416 150.262 11.9912C150.707 13.1153 150.931 14.3671 150.931 15.7466C150.931 16.2831 150.894 16.8452 150.819 17.4327H135.682C135.831 19.3487 136.5 20.8943 137.69 22.0695C138.88 23.2191 140.406 23.7939 142.265 23.7939C144.62 23.7939 146.455 22.7465 147.77 20.6517L150.15 22.491C148.266 25.3012 145.624 26.7063 142.227 26.7063ZM142.042 9.34709C140.406 9.34709 139.042 9.84529 137.951 10.8416C136.884 11.8124 136.178 13.1025 135.831 14.712H147.844C147.819 13.9456 147.646 13.2303 147.323 12.566C147.026 11.9017 146.616 11.3398 146.096 10.8799C145.6 10.3945 145.004 10.0241 144.311 9.76862C143.616 9.4876 142.86 9.34709 142.042 9.34709Z" fill="#333333"/>
<path d="M117.39 23.4419H121.733C122.91 23.4419 123.83 23.1102 124.492 22.4469C125.155 21.7835 125.486 20.916 125.486 19.8445C125.486 18.7729 125.155 17.9182 124.492 17.2804C123.83 16.6425 122.91 16.3236 121.733 16.3236H117.39V23.4419ZM114.41 26.2356V7.10037H117.39V13.5298H122.101C123.058 13.5298 123.928 13.6829 124.713 13.9891C125.499 14.2953 126.173 14.7289 126.737 15.2903C127.301 15.8516 127.73 16.5277 128.025 17.3186C128.343 18.084 128.503 18.9387 128.503 19.8828C128.503 20.8012 128.343 21.6559 128.025 22.4469C127.73 23.2123 127.301 23.8757 126.737 24.437C126.197 24.9982 125.535 25.4447 124.75 25.7764C123.965 26.0826 123.095 26.2356 122.138 26.2356H114.41Z" fill="#333333"/>
<path d="M91.3765 7.01125H94.379V10.2789C95.1207 9.07435 96.0719 8.13891 97.2332 7.47257C98.42 6.80622 99.7544 6.47305 101.237 6.47305C102.522 6.47305 103.72 6.72934 104.832 7.24191C105.944 7.75448 106.908 8.45927 107.723 9.35627C108.539 10.2533 109.17 11.3297 109.614 12.5855C110.084 13.8157 110.318 15.1611 110.318 16.622C110.318 18.0828 110.084 19.4411 109.614 20.6969C109.17 21.9271 108.539 22.9906 107.723 23.8876C106.908 24.7847 105.944 25.4895 104.832 26.002C103.72 26.5146 102.522 26.7709 101.237 26.7709C99.7544 26.7709 98.42 26.4377 97.2332 25.7714C96.0719 25.105 95.1207 24.1696 94.379 22.9651V33.9212H91.3765V7.01125ZM100.829 23.8492C101.793 23.8492 102.67 23.6698 103.461 23.3111C104.252 22.9522 104.931 22.4524 105.499 21.8118C106.068 21.1454 106.501 20.3766 106.797 19.5051C107.119 18.6081 107.279 17.6471 107.279 16.622C107.279 15.5712 107.119 14.6101 106.797 13.7388C106.501 12.8673 106.068 12.1114 105.499 11.4706C104.931 10.8043 104.252 10.2917 103.461 9.93287C102.67 9.57411 101.793 9.39471 100.829 9.39471C99.8652 9.39471 98.9878 9.57411 98.1976 9.93287C97.4063 10.2917 96.7268 10.8043 96.158 11.4706C95.5902 12.1114 95.1453 12.8673 94.8236 13.7388C94.5273 14.6101 94.379 15.5712 94.379 16.622C94.379 17.6471 94.5273 18.6081 94.8236 19.5051C95.1453 20.3766 95.5902 21.1454 96.158 21.8118C96.7268 22.4524 97.4063 22.9522 98.1976 23.3111C98.9878 23.6698 99.8652 23.8492 100.829 23.8492Z" fill="#333333"/>
<path d="M78.6538 26.7063C77.2277 26.7063 75.9243 26.4636 74.744 25.9782C73.5883 25.4673 72.5924 24.7647 71.7564 23.8706C70.9203 22.9765 70.2687 21.9162 69.8014 20.69C69.3342 19.4637 69.1006 18.1225 69.1006 16.6663C69.1006 15.1846 69.3342 13.8306 69.8014 12.6043C70.2687 11.3525 70.9203 10.2796 71.7564 9.38544C72.6169 8.46575 73.6252 7.75043 74.781 7.2395C75.9366 6.72855 77.1908 6.47308 78.5432 6.47308C79.8465 6.47308 81.0268 6.703 82.0842 7.16285C83.1661 7.59715 84.0883 8.22306 84.8506 9.04056C85.6128 9.85805 86.203 10.8417 86.6211 11.9912C87.0637 13.1153 87.285 14.3671 87.285 15.7467C87.285 16.2831 87.2482 16.8452 87.1743 17.4327H72.1621C72.3096 19.3487 72.9736 20.8943 74.1539 22.0695C75.3342 23.2191 76.8465 23.7939 78.6908 23.7939C81.0268 23.7939 82.8465 22.7465 84.1497 20.6517L86.5104 22.4911C84.6416 25.3012 82.0227 26.7063 78.6538 26.7063ZM78.4695 9.34712C76.8464 9.34712 75.494 9.84532 74.412 10.8417C73.3547 11.8124 72.6539 13.1026 72.3096 14.712H84.2236C84.199 13.9456 84.0268 13.2303 83.7071 12.566C83.4121 11.9018 83.0064 11.3398 82.4899 10.88C81.9981 10.3946 81.4079 10.0241 80.7194 9.76865C80.0309 9.48763 79.2809 9.34712 78.4695 9.34712Z" fill="#333333"/>
<path d="M65.0091 7.10037V9.97068H58.6994V26.2356H55.7106V9.97068H49.4009V7.10037H65.0091Z" fill="#333333"/>
<path d="M45.3092 7.10037V26.2356H42.3284V17.51H32.8335V26.2356H29.8525V7.10037H32.8335V14.6397H42.3284V7.10037H45.3092Z" fill="#333333"/>
<path d="M9.64055 2.69871C10.2295 2.17909 10.3819 1.36435 9.98079 0.878924C9.57969 0.393504 8.77714 0.421227 8.18816 0.940845C7.59918 1.46046 7.44686 2.27521 7.84793 2.76063C8.249 3.24604 9.0516 3.21832 9.64055 2.69871Z" fill="#642A38"/>
<path d="M22.1836 18.876C22.1836 18.876 22.4106 25.839 25.1818 25.2696C25.1818 25.2696 15.23 29.8011 16.4616 18.7059C16.4616 18.7059 16.7454 15.4493 14.3208 14.9007C14.3208 14.9007 12.5777 14.5508 10.1536 18.876C10.1536 18.876 6.71737 25.0562 4.3794 26.3717C4.3794 26.3717 -0.0815958 28.9531 0.823954 20.8427C0.823954 20.8427 1.36843 15.2583 6.75143 4.24303C6.75143 4.24303 7.24171 3.20432 8.21624 3.60448C8.37477 3.66957 8.46902 3.83343 8.48461 4.00885C8.49756 4.15454 8.48225 4.30144 8.43961 4.44097L8.32913 4.80237C8.32913 4.80237 4.24363 13.2535 4.84978 16.6257C4.84978 16.6257 5.15285 19.2921 6.89552 18.876C6.89552 18.876 9.77473 17.6452 12.5023 13.1754C12.5023 13.1754 16.5241 6.89351 19.7721 6.85817C19.7721 6.85817 22.5339 6.54714 22.6627 11.773C22.6627 11.773 21.9764 17.847 22.1836 18.876Z" fill="#642A38"/>
<path d="M202.27 25.6717V26.7063H187.784V25.6717H202.27ZM211.004 16.5897C211.004 11.5739 207.093 7.50771 202.27 7.50771H187.784C182.961 7.50771 179.05 11.5739 179.05 16.5897C179.05 21.6055 182.961 25.6717 187.784 25.6717V26.7063L187.66 26.7054C182.343 26.6354 178.055 22.1333 178.055 16.5897C178.055 11.0024 182.412 6.47305 187.784 6.47305H202.27C207.643 6.47305 211.999 11.0024 211.999 16.5897C211.999 22.1333 207.711 26.6354 202.395 26.7054L202.27 26.7063V25.6717C207.093 25.6717 211.004 21.6055 211.004 16.5897Z" fill="#642A38"/>
<path d="M200.691 6.47305H201.941V12.2662C202.575 12.288 203.145 12.4137 203.652 12.643C204.168 12.8615 204.607 13.1673 204.965 13.5605C205.325 13.9427 205.599 14.3905 205.789 14.9039C205.989 15.4172 206.09 15.9742 206.09 16.5749C206.09 17.1757 205.989 17.7327 205.789 18.246C205.599 18.7593 205.325 19.2125 204.965 19.6057C204.607 19.9881 204.168 20.2938 203.652 20.5232C203.145 20.7417 202.575 20.8618 201.941 20.8836V26.7063H200.691V20.8836C200.058 20.8618 199.483 20.7417 198.965 20.5232C198.459 20.2938 198.026 19.9881 197.667 19.6057C197.309 19.2125 197.028 18.7593 196.828 18.246C196.638 17.7327 196.543 17.1757 196.543 16.5749C196.543 15.9742 196.638 15.4172 196.828 14.9039C197.028 14.3905 197.309 13.9427 197.667 13.5605C198.026 13.1673 198.459 12.8615 198.965 12.643C199.483 12.4137 200.058 12.288 200.691 12.2662V6.47305ZM201.941 19.6549C202.363 19.644 202.749 19.5621 203.098 19.4091C203.457 19.2562 203.762 19.0433 204.016 18.7703C204.269 18.4971 204.465 18.175 204.602 17.8037C204.749 17.4323 204.823 17.0228 204.823 16.5749C204.823 16.1271 204.749 15.7176 204.602 15.3462C204.465 14.9748 204.269 14.6526 204.016 14.3796C203.762 14.1065 203.457 13.8936 203.098 13.7406C202.749 13.5877 202.363 13.5058 201.941 13.495V19.6549ZM200.691 13.495C200.269 13.5058 199.878 13.5877 199.519 13.7406C199.171 13.8936 198.87 14.1065 198.617 14.3796C198.364 14.6526 198.163 14.9748 198.016 15.3462C197.878 15.7176 197.809 16.1271 197.809 16.5749C197.809 17.0228 197.878 17.4323 198.016 17.8037C198.163 18.175 198.364 18.4971 198.617 18.7703C198.87 19.0433 199.171 19.2562 199.519 19.4091C199.878 19.5621 200.269 19.644 200.691 19.6549V13.495Z" fill="#642A38"/>
<path d="M187.451 12.5051H188.724V13.8934C189.038 13.3816 189.442 12.9842 189.934 12.7011C190.437 12.418 191.003 12.2764 191.632 12.2764C192.176 12.2764 192.684 12.3854 193.156 12.6031C193.628 12.8209 194.036 13.1203 194.382 13.5014C194.728 13.8825 194.995 14.3398 195.184 14.8733C195.383 15.396 195.482 15.9675 195.482 16.5882C195.482 17.2088 195.383 17.7859 195.184 18.3194C194.995 18.8421 194.728 19.2939 194.382 19.675C194.036 20.0561 193.628 20.3555 193.156 20.5733C192.684 20.7911 192.176 20.8999 191.632 20.8999C191.003 20.8999 190.437 20.7583 189.934 20.4752C189.442 20.1921 189.038 19.7948 188.724 19.283V26.7063H187.451V12.5051ZM191.459 19.6586C191.868 19.6586 192.24 19.5824 192.575 19.43C192.91 19.2776 193.198 19.0652 193.439 18.7931C193.68 18.51 193.864 18.1833 193.989 17.8131C194.125 17.432 194.193 17.0237 194.193 16.5882C194.193 16.1418 194.125 15.7334 193.989 15.3632C193.864 14.993 193.68 14.6718 193.439 14.3997C193.198 14.1166 192.91 13.8988 192.575 13.7464C192.24 13.5939 191.868 13.5177 191.459 13.5177C191.05 13.5177 190.678 13.5939 190.343 13.7464C190.008 13.8988 189.719 14.1166 189.478 14.3997C189.238 14.6718 189.049 14.993 188.913 15.3632C188.787 15.7334 188.724 16.1418 188.724 16.5882C188.724 17.0237 188.787 17.432 188.913 17.8131C189.049 18.1833 189.238 18.51 189.478 18.7931C189.719 19.0652 190.008 19.2776 190.343 19.43C190.678 19.5824 191.05 19.6586 191.459 19.6586Z" fill="#642A38"/>
<path d="M182.45 17.766C182.106 17.766 181.815 17.6567 181.576 17.4381C181.351 17.2067 181.238 16.9239 181.238 16.5896C181.238 16.2553 181.351 15.9789 181.576 15.7604C181.815 15.529 182.106 15.4133 182.45 15.4133C182.794 15.4133 183.079 15.529 183.304 15.7604C183.543 15.9789 183.662 16.2553 183.662 16.5896C183.662 16.9239 183.543 17.2067 183.304 17.4381C183.079 17.6567 182.794 17.766 182.45 17.766Z" fill="#642A38"/>
</g>

</symbol>
<symbol id="max" viewBox="0 0 18 17">
  <path d="M9.194 16.953c-1.768 0-2.59-.246-4.014-1.228-.906 1.105-3.76 1.965-3.885.49 0-1.104-.261-2.034-.55-3.059C.394 11.902 0 10.506 0 8.476 0 3.64 4.185 0 9.148 0 14.109 0 18 3.816 18 8.524c0 4.707-4.014 8.429-8.806 8.429Zm.072-12.77c-2.414-.12-4.298 1.468-4.714 3.954-.344 2.06.266 4.569.788 4.695.246.06.876-.424 1.264-.793.64.393 1.373.698 2.188.738 2.479.123 4.675-1.716 4.805-4.067.13-2.35-1.852-4.404-4.33-4.527Z"/>
</symbol>
<symbol id="packpages" viewBox="0 0 24 24">
<path fill-rule="evenodd" clip-rule="evenodd" d="M1.25 6C1.25 3.37665 3.37665 1.25 6 1.25C8.62335 1.25 10.75 3.37665 10.75 6V6.43202L12.7833 4.39868C14.6383 2.54369 17.6459 2.54369 19.5008 4.39868C21.3558 6.25367 21.3558 9.26121 19.5008 11.1162L17.367 13.25H18C20.6234 13.25 22.75 15.3766 22.75 18C22.75 20.6234 20.6234 22.75 18 22.75H6C3.37665 22.75 1.25 20.6234 1.25 18V6ZM9.46412 21.25H18C19.7949 21.25 21.25 19.7949 21.25 18C21.25 16.2051 19.7949 14.75 18 14.75H15.867L9.8889 20.7281C9.7596 20.9121 9.61758 21.0865 9.46412 21.25ZM10.75 17.7457L18.4402 10.0555C19.7094 8.78633 19.7094 6.72855 18.4402 5.45934C17.171 4.19014 15.1132 4.19014 13.844 5.45934L10.75 8.55334V17.7457ZM6 2.75C4.20507 2.75 2.75 4.20507 2.75 6V18C2.75 19.7949 4.20507 21.25 6 21.25C7.79493 21.25 9.25 19.7949 9.25 18V6C9.25 4.20507 7.79493 2.75 6 2.75ZM6 17.75C5.86193 17.75 5.75 17.8619 5.75 18C5.75 18.1381 5.86193 18.25 6 18.25C6.13807 18.25 6.25 18.1381 6.25 18C6.25 17.8619 6.13807 17.75 6 17.75ZM4.25 18C4.25 17.0335 5.0335 16.25 6 16.25C6.9665 16.25 7.75 17.0335 7.75 18C7.75 18.9665 6.9665 19.75 6 19.75C5.0335 19.75 4.25 18.9665 4.25 18Z" fill="#333333"/>
</symbol>
<symbol id="ruble" viewBox="0 0 24 24">
<path fill-rule="evenodd" clip-rule="evenodd" d="M12 2.75C6.89137 2.75 2.75 6.89137 2.75 12C2.75 17.1086 6.89137 21.25 12 21.25C17.1086 21.25 21.25 17.1086 21.25 12C21.25 6.89137 17.1086 2.75 12 2.75ZM1.25 12C1.25 6.06294 6.06294 1.25 12 1.25C17.9371 1.25 22.75 6.06294 22.75 12C22.75 17.9371 17.9371 22.75 12 22.75C6.06294 22.75 1.25 17.9371 1.25 12ZM11.1615 6.24997C11.1744 6.24998 11.1872 6.25 11.2 6.25H13.5C15.2949 6.25 16.75 7.70507 16.75 9.5C16.75 11.2949 15.2949 12.75 13.5 12.75H10.75V13.25H12C12.4142 13.25 12.75 13.5858 12.75 14C12.75 14.4142 12.4142 14.75 12 14.75H10.75V17C10.75 17.4142 10.4142 17.75 10 17.75C9.58579 17.75 9.25 17.4142 9.25 17V14.75H9C8.58579 14.75 8.25 14.4142 8.25 14C8.25 13.5858 8.58579 13.25 9 13.25H9.25V12.75H9C8.58579 12.75 8.25 12.4142 8.25 12C8.25 11.5858 8.58579 11.25 9 11.25H9.25V8.2C9.25 8.18722 9.24998 8.17439 9.24997 8.16151C9.24979 8.01598 9.24961 7.86471 9.27155 7.72624C9.39015 6.97743 9.97743 6.39015 10.7262 6.27155C10.8647 6.24961 11.016 6.24979 11.1615 6.24997ZM10.75 11.25H13.5C14.4665 11.25 15.25 10.4665 15.25 9.5C15.25 8.5335 14.4665 7.75 13.5 7.75H11.2C11.103 7.75 11.0453 7.75007 11.0018 7.75126C10.9742 7.75202 10.9622 7.75306 10.9593 7.75334C10.8536 7.77077 10.7708 7.85362 10.7533 7.95929C10.7531 7.96217 10.752 7.97416 10.7513 8.0018C10.7501 8.04531 10.75 8.10303 10.75 8.2V11.25Z" fill="white"/>
</symbol>
<symbol id="telegramm" viewBox="0 0 18 14">
  <path d="M.272 6.512c1.841-.952 3.897-1.747 5.817-2.546 3.305-1.31 6.622-2.595 9.973-3.793.652-.204 1.823-.403 1.938.504-.063 1.284-.322 2.56-.5 3.838-.45 2.808-.97 5.606-1.478 8.404-.175.932-1.418 1.415-2.214.818-1.912-1.213-3.839-2.414-5.727-3.655-.618-.59-.044-1.437.508-1.858 1.575-1.458 3.245-2.696 4.737-4.23.403-.912-.787-.143-1.179.093-2.156 1.395-4.26 2.876-6.532 4.102-1.161.6-2.515.087-3.675-.248C.9 7.537-.626 7.13.272 6.512Z"/>
</symbol>
<symbol id="tile" viewBox="0 0 24 24">
<path d="M13.5 15.5C13.5 13.6144 13.5 12.6716 14.0858 12.0858C14.6716 11.5 15.6144 11.5 17.5 11.5C19.3856 11.5 20.3284 11.5 20.9142 12.0858C21.5 12.6716 21.5 13.6144 21.5 15.5V17.5C21.5 19.3856 21.5 20.3284 20.9142 20.9142C20.3284 21.5 19.3856 21.5 17.5 21.5C15.6144 21.5 14.6716 21.5 14.0858 20.9142C13.5 20.3284 13.5 19.3856 13.5 17.5V15.5Z" stroke="white" stroke-width="1.5"/>
<path d="M2 8.5C2 10.3856 2 11.3284 2.58579 11.9142C3.17157 12.5 4.11438 12.5 6 12.5C7.88562 12.5 8.82843 12.5 9.41421 11.9142C10 11.3284 10 10.3856 10 8.5V6.5C10 4.61438 10 3.67157 9.41421 3.08579C8.82843 2.5 7.88562 2.5 6 2.5C4.11438 2.5 3.17157 2.5 2.58579 3.08579C2 3.67157 2 4.61438 2 6.5V8.5Z" stroke="white" stroke-width="1.5"/>
<path d="M13.5 5.5C13.5 4.56812 13.5 4.10218 13.6522 3.73463C13.8552 3.24458 14.2446 2.85523 14.7346 2.65224C15.1022 2.5 15.5681 2.5 16.5 2.5H18.5C19.4319 2.5 19.8978 2.5 20.2654 2.65224C20.7554 2.85523 21.1448 3.24458 21.3478 3.73463C21.5 4.10218 21.5 4.56812 21.5 5.5C21.5 6.43188 21.5 6.89782 21.3478 7.26537C21.1448 7.75542 20.7554 8.14477 20.2654 8.34776C19.8978 8.5 19.4319 8.5 18.5 8.5H16.5C15.5681 8.5 15.1022 8.5 14.7346 8.34776C14.2446 8.14477 13.8552 7.75542 13.6522 7.26537C13.5 6.89782 13.5 6.43188 13.5 5.5Z" stroke="white" stroke-width="1.5"/>
<path d="M2 18.5C2 19.4319 2 19.8978 2.15224 20.2654C2.35523 20.7554 2.74458 21.1448 3.23463 21.3478C3.60218 21.5 4.06812 21.5 5 21.5H7C7.93188 21.5 8.39782 21.5 8.76537 21.3478C9.25542 21.1448 9.64477 20.7554 9.84776 20.2654C10 19.8978 10 19.4319 10 18.5C10 17.5681 10 17.1022 9.84776 16.7346C9.64477 16.2446 9.25542 15.8552 8.76537 15.6522C8.39782 15.5 7.93188 15.5 7 15.5H5C4.06812 15.5 3.60218 15.5 3.23463 15.6522C2.74458 15.8552 2.35523 16.2446 2.15224 16.7346C2 17.1022 2 17.5681 2 18.5Z" stroke="white" stroke-width="1.5"/>
</symbol>
<symbol id="zoom" viewBox="0 0 24 24">
  <path stroke="currentColor" stroke-linecap="round" stroke-linejoin="round" stroke-width="1.5" d="m9 15-7 7m0-5.857V22h5.857M15 9l7-7m0 5.857V2h-5.857"/>
</symbol>
</svg>