<svg width="20" height="22" viewBox="0 0 20 22" fill="none" xmlns="http://www.w3.org/2000/svg">
<path fill-rule="evenodd" clip-rule="evenodd" d="M6.75 2.5C6.31379 2.5 5.9153 2.50001 5.54757 2.50318C5.13337 2.50675 4.7947 2.17387 4.79112 1.75968C4.78755 1.34548 5.12043 1.00681 5.53463 1.00323C5.90946 1 6.31405 1 6.74787 1L7.65909 1C8.07331 1 8.40909 1.33579 8.40909 1.75C8.40909 2.16421 8.07331 2.5 7.65909 2.5L6.75 2.5ZM3.37882 1.8046C3.50175 2.20015 3.28075 2.62047 2.8852 2.7434C2.56401 2.84322 2.34048 2.97754 2.15901 3.15901C1.97754 3.34048 1.84322 3.56401 1.7434 3.8852C1.62047 4.28075 1.20015 4.50175 0.804603 4.37882C0.409051 4.25589 0.188049 3.83557 0.31098 3.44002C0.471157 2.92463 0.718764 2.47794 1.09835 2.09835C1.47794 1.71876 1.92463 1.47116 2.44002 1.31098C2.83557 1.18805 3.25589 1.40905 3.37882 1.8046ZM0.759676 5.79112C1.17387 5.7947 1.50675 6.13337 1.50318 6.54756C1.50001 6.9153 1.5 7.31379 1.5 7.75L1.5 9.11364C1.5 9.52785 1.16421 9.86364 0.75 9.86364C0.335787 9.86364 3.58141e-07 9.52785 4.17745e-07 9.11364L5.36955e-07 7.74787C5.36955e-07 7.31405 5.36907e-07 6.90946 0.00323409 6.53463C0.00680721 6.12043 0.345478 5.78755 0.759676 5.79112ZM0.75 11.6364C1.16421 11.6364 1.5 11.9722 1.5 12.3864L1.5 13.75C1.5 14.1862 1.50001 14.5847 1.50318 14.9524C1.50675 15.3666 1.17387 15.7053 0.759675 15.7089C0.345477 15.7125 0.00680643 15.3796 0.00323337 14.9654C-1.18744e-07 14.5905 -5.90917e-08 14.1859 5.12955e-10 13.7521L1.19722e-07 12.3864C1.79327e-07 11.9722 0.335787 11.6364 0.75 11.6364ZM0.804601 17.1212C1.20015 16.9983 1.62047 17.2193 1.7434 17.6148C1.84322 17.936 1.97754 18.1595 2.15901 18.341C2.34048 18.5225 2.56401 18.6568 2.8852 18.7566C3.28075 18.8795 3.50175 19.2998 3.37882 19.6954C3.25589 20.091 2.83557 20.312 2.44002 20.189C1.92463 20.0288 1.47794 19.7812 1.09835 19.4017C0.718763 19.0221 0.471156 18.5754 0.310979 18.06C0.188048 17.6644 0.40905 17.2441 0.804601 17.1212ZM4.79112 19.7403C4.7947 19.3261 5.13337 18.9932 5.54756 18.9968C5.9153 19 6.31379 19 6.75 19H7.65909C8.0733 19 8.40909 19.3358 8.40909 19.75C8.40909 20.1642 8.0733 20.5 7.65909 20.5H6.7477C6.31395 20.5 5.90941 20.5 5.53463 20.4968C5.12043 20.4932 4.78755 20.1545 4.79112 19.7403Z" fill="#5B2431"/>
<path fill-rule="evenodd" clip-rule="evenodd" d="M9.75 0C10.1642 5.96056e-08 10.5 0.335786 10.5 0.75V0.999999L10.8064 0.999999C12.6442 0.999983 14.0998 0.99997 15.239 1.15313C16.4114 1.31076 17.3604 1.64288 18.1088 2.39124C18.8571 3.13961 19.1892 4.08856 19.3469 5.26098C19.5 6.40019 19.5 7.85583 19.5 9.69359V11.8064C19.5 13.6442 19.5 15.0998 19.3469 16.239C19.1892 17.4114 18.8571 18.3604 18.1088 19.1088C17.3604 19.8571 16.4114 20.1892 15.239 20.3469C14.0998 20.5 12.6442 20.5 10.8064 20.5H10.5V20.75C10.5 21.1642 10.1642 21.5 9.75 21.5C9.33579 21.5 9 21.1642 9 20.75V19.7504L9 1.75159L9 1.75L9 1.74841V0.75C9 0.335786 9.33579 -5.96037e-08 9.75 0ZM10.5 2.5L10.5 19H10.75C12.6568 19 14.0115 18.9984 15.0391 18.8602C16.0452 18.725 16.6249 18.4713 17.0481 18.0481C17.4713 17.6249 17.725 17.0452 17.8602 16.0392C17.9984 15.0115 18 13.6568 18 11.75V9.75C18 7.84318 17.9984 6.48852 17.8602 5.46085C17.725 4.45476 17.4713 3.87511 17.0481 3.4519C16.6249 3.02869 16.0452 2.77502 15.0392 2.63976C14.0115 2.50159 12.6568 2.5 10.75 2.5H10.5Z" fill="#333333"/>
</svg>
