<svg xmlns="http://www.w3.org/2000/svg" width="22" height="22" fill="currentColor" viewBox="0 0 22 22">
  <path fill-rule="evenodd" d="M13.698 0h2.104c.899 0 1.648 0 2.242.08.628.084 1.195.27 1.65.725.456.456.642 1.023.726 1.65.08.595.08 1.345.08 2.243V20h.25a.75.75 0 0 1 0 1.5h-20a.75.75 0 0 1 0-1.5H1V7.698c0-.898 0-1.648.08-2.242.084-.628.27-1.195.725-1.65.456-.456 1.023-.642 1.65-.726C4.05 3 4.8 3 5.699 3h3.33c.051-.874.213-1.63.777-2.195.456-.455 1.023-.64 1.65-.725C12.05 0 12.8 0 13.699 0ZM9.757 4.5H5.75c-.964 0-1.612.002-2.095.067-.461.062-.659.169-.789.3-.13.13-.237.327-.3.788-.064.483-.066 1.131-.066 2.095V20H7v-2.25a.75.75 0 0 1 1.5 0V20H13V7.75c0-.964-.002-1.612-.066-2.095-.063-.461-.17-.659-.3-.789-.13-.13-.328-.237-.79-.3-.481-.064-1.127-.066-2.087-.066ZM14.5 20V7.698c0-.898 0-1.648-.08-2.242-.084-.628-.27-1.195-.726-1.65-.455-.456-1.022-.642-1.65-.726-.425-.057-.93-.074-1.51-.078.05-.7.16-.963.332-1.136.13-.13.328-.237.79-.3.482-.064 1.13-.066 2.094-.066h2c.964 0 1.612.002 2.095.067.461.062.659.169.789.3.13.13.237.327.3.788.064.483.066 1.131.066 2.095V20h-4.5ZM4 6.75A.75.75 0 0 1 4.75 6h6a.75.75 0 0 1 0 1.5h-6A.75.75 0 0 1 4 6.75Zm0 3A.75.75 0 0 1 4.75 9h6a.75.75 0 0 1 0 1.5h-6A.75.75 0 0 1 4 9.75Zm0 3a.75.75 0 0 1 .75-.75h6a.75.75 0 0 1 0 1.5h-6a.75.75 0 0 1-.75-.75Z"/>
</svg>
