<svg xmlns="http://www.w3.org/2000/svg" width="22" height="22" fill="currentColor" viewBox="0 0 22 22">
  <path fill-rule="evenodd" d="M9.698 0h2.104c.899 0 1.648 0 2.242.08.628.084 1.195.27 1.65.725.456.456.642 1.023.726 1.65.023.17.04.351.05.545.59 0 1.088.004 1.499.046.473.048.913.153 1.309.417.3.201.558.459.759.76.264.395.369.835.417 1.308.046.452.046 1.011.046 1.68V20h.25a.75.75 0 0 1 0 1.5h-20a.75.75 0 0 1 0-1.5H1V7.212c0-.67 0-1.229.046-1.681.048-.473.153-.913.417-1.309.201-.3.459-.558.76-.759.395-.264.835-.369 1.308-.417C3.941 3.004 4.44 3 5.029 3c.012-.194.028-.375.05-.544.085-.628.271-1.195.726-1.65C6.261.35 6.828.163 7.455.08 8.05 0 8.8 0 9.699 0ZM5 4.5c-.583 0-.994.005-1.317.038-.355.036-.519.1-.627.173a1.25 1.25 0 0 0-.345.345c-.073.108-.137.272-.173.627-.037.367-.038.85-.038 1.567V20H5v-6.5h-.75a.75.75 0 0 1 0-1.5H5v-1.5h-.75a.75.75 0 0 1 0-1.5H5V7.5h-.75a.75.75 0 1 1 0-1.5H5V4.5ZM6.5 20H10v-2.25a.75.75 0 0 1 1.5 0V20H15V4.75c0-.964-.002-1.612-.066-2.095-.063-.461-.17-.659-.3-.789-.13-.13-.328-.237-.79-.3-.482-.064-1.13-.066-2.094-.066h-2c-.964 0-1.612.002-2.095.067-.461.062-.659.169-.789.3-.13.13-.237.327-.3.788-.064.483-.066 1.131-.066 2.095V20Zm10-12.5h.75a.75.75 0 0 0 0-1.5h-.75V4.5c.583 0 .994.005 1.317.038.355.036.519.1.628.173.136.09.253.208.344.345.073.108.137.272.173.627.037.367.038.85.038 1.567V20h-2.5v-6.5h.75a.75.75 0 0 0 0-1.5h-.75v-1.5h.75a.75.75 0 0 0 0-1.5h-.75V7.5Zm-5.75-3a1.25 1.25 0 1 0 0 2.5 1.25 1.25 0 0 0 0-2.5ZM8 5.75a2.75 2.75 0 1 1 5.5 0 2.75 2.75 0 0 1-5.5 0Zm0 5a.75.75 0 0 1 .75-.75h4a.75.75 0 0 1 0 1.5h-4a.75.75 0 0 1-.75-.75Zm0 3a.75.75 0 0 1 .75-.75h4a.75.75 0 0 1 0 1.5h-4a.75.75 0 0 1-.75-.75Z"/>
</svg>
