<svg xmlns="http://www.w3.org/2000/svg" width="15" height="15" fill="currentColor" viewBox="0 0 15 15">
  <path fill-rule="evenodd" d="M15 7.5a7.5 7.5 0 1 1-15 0 7.5 7.5 0 0 1 15 0ZM7.5 4.312a.844.844 0 0 0-.844.844.563.563 0 0 1-1.125 0 1.969 1.969 0 1 1 3.381 1.372l-.198.2a5.122 5.122 0 0 0-.428.463c-.164.211-.223.367-.223.497v.562a.563.563 0 0 1-1.126 0v-.563c0-.49.23-.889.461-1.187.172-.22.387-.435.562-.61l.145-.146A.844.844 0 0 0 7.5 4.312Zm0 6.938a.75.75 0 1 0 0-1.5.75.75 0 0 0 0 1.5Z"/>
</svg>
