<svg width="212" height="48" viewBox="0 0 212 48" fill="none" xmlns="http://www.w3.org/2000/svg">
<g clip-path="url(#clip0_1_1580)">
<path d="M212 39.5824V45.5346H210.756V43.6298H209.57L208.464 45.5346H207.026L208.315 43.4156C207.981 43.2568 207.718 43.0227 207.528 42.7132C207.346 42.3958 207.254 42.0267 207.254 41.6061C207.254 41.3124 207.304 41.0426 207.403 40.7966C207.501 40.5427 207.639 40.3283 207.814 40.1538C207.996 39.9713 208.213 39.8324 208.464 39.7371C208.715 39.6339 208.992 39.5824 209.297 39.5824H212ZM210.756 40.7252H209.456C209.16 40.7252 208.924 40.8085 208.749 40.9751C208.581 41.1339 208.498 41.3442 208.498 41.6061C208.498 41.868 208.581 42.0823 208.749 42.2489C208.924 42.4077 209.16 42.4871 209.456 42.4871H210.756V40.7252Z" fill="#642A38"/>
<path d="M196.613 39.5824H197.915V43.5466L200.44 39.5824H201.742V45.5346H200.44V41.5704L197.904 45.5346H196.613V39.5824Z" fill="#642A38"/>
<path d="M185.578 45.4929V39.5824H186.872V44.2635H189.291V39.5824H190.575V44.2635H191.483V46.9824H190.211V45.4929H185.578Z" fill="#642A38"/>
<path d="M178.577 44.7212C178.156 45.3708 177.528 45.6956 176.694 45.6956C176.396 45.6956 176.121 45.652 175.869 45.5649C175.624 45.4777 175.414 45.355 175.238 45.1965C175.069 45.0302 174.935 44.8361 174.835 44.6143C174.744 44.3845 174.698 44.135 174.698 43.8657C174.698 43.2716 174.916 42.8082 175.352 42.4754C175.789 42.1348 176.411 41.9487 177.222 41.9169L178.577 41.8576V41.7862C178.577 41.3981 178.462 41.0931 178.232 40.8713C178.003 40.6495 177.689 40.5385 177.291 40.5385C176.664 40.5385 176.201 40.8396 175.903 41.4416L174.859 40.907C175.096 40.4317 175.425 40.0673 175.845 39.8137C176.266 39.5524 176.767 39.4216 177.349 39.4216C177.732 39.4216 178.075 39.4771 178.382 39.5879C178.687 39.6989 178.948 39.8613 179.162 40.0752C179.375 40.2811 179.54 40.5307 179.655 40.8238C179.77 41.1169 179.827 41.4456 179.827 41.8101V45.5293H178.577V44.7212ZM176.982 44.5667C177.219 44.5667 177.432 44.5271 177.624 44.4479C177.823 44.3687 177.991 44.2579 178.129 44.1152C178.274 43.9726 178.386 43.8023 178.462 43.6043C178.538 43.4062 178.577 43.1884 178.577 42.9507V42.8438L177.303 42.8913C176.415 42.9388 175.972 43.2319 175.972 43.7706C175.972 44.0162 176.06 44.2102 176.235 44.3529C176.419 44.4955 176.668 44.5667 176.982 44.5667Z" fill="#642A38"/>
<path d="M169.879 39.5824V40.8204H168.047V45.5346H166.726V40.8204H164.906V39.5824H169.879Z" fill="#642A38"/>
<path d="M156.394 41.8561H157.146L158.762 39.5824H160.188L158.134 42.4156L160.243 45.5346H158.774L157.124 43.0584H156.394V45.5346H155.115V39.5824H156.394V41.8561Z" fill="#642A38"/>
<path d="M147.085 45.6956C146.645 45.6956 146.239 45.6204 145.867 45.4698C145.495 45.3114 145.177 45.0935 144.911 44.8163C144.652 44.539 144.448 44.2102 144.295 43.8301C144.152 43.4498 144.08 43.0299 144.08 42.5705C144.08 42.1111 144.152 41.6912 144.295 41.311C144.448 40.9228 144.652 40.5901 144.911 40.3128C145.177 40.0277 145.492 39.8098 145.856 39.6593C146.22 39.5009 146.619 39.4216 147.051 39.4216C147.461 39.4216 147.837 39.4929 148.179 39.6356C148.52 39.7781 148.813 39.9801 149.056 40.2415C149.307 40.495 149.496 40.8 149.626 41.1565C149.762 41.5129 149.83 41.909 149.83 42.3447C149.83 42.4319 149.826 42.523 149.819 42.618C149.811 42.713 149.8 42.8161 149.785 42.927H145.367C145.435 43.4182 145.62 43.8063 145.924 44.0914C146.236 44.3687 146.63 44.5074 147.108 44.5074C147.784 44.5074 148.293 44.2143 148.635 43.6281L149.568 44.3885C149.288 44.8163 148.939 45.1411 148.52 45.3629C148.103 45.5847 147.625 45.6956 147.085 45.6956ZM147.029 40.5742C146.619 40.5742 146.27 40.697 145.981 40.9426C145.7 41.1803 145.507 41.505 145.401 41.9169H148.532C148.494 41.5129 148.339 41.1882 148.065 40.9426C147.791 40.697 147.446 40.5742 147.029 40.5742Z" fill="#642A38"/>
<path d="M133.044 44.2211H133.137C133.331 44.2211 133.489 44.1895 133.613 44.1264C133.744 44.0554 133.846 43.9292 133.915 43.7477C133.992 43.5663 134.046 43.3178 134.077 43.0023C134.109 42.6788 134.124 42.2685 134.124 41.7716V39.5824H138.639V45.4991H137.316V40.8131H135.401V41.9964C135.401 42.6354 135.366 43.1798 135.296 43.6294C135.226 44.0712 135.11 44.4341 134.948 44.7181C134.785 45.0021 134.565 45.2111 134.287 45.3452C134.007 45.4715 133.659 45.5346 133.242 45.5346H133.044V44.2211Z" fill="#642A38"/>
<path d="M122.786 39.5824H127.915V45.5346H126.609V40.8204H124.103V45.5346H122.786V39.5824Z" fill="#642A38"/>
<path d="M115.534 39.5824H117.035V45.5346H115.859V41.3919L114.302 44.7132H113.552L111.995 41.3919V45.5346H110.818V39.5824H112.341L113.943 43.0942L115.534 39.5824Z" fill="#642A38"/>
<path d="M102.348 45.6956C101.902 45.6956 101.495 45.6164 101.127 45.458C100.758 45.2996 100.439 45.0817 100.17 44.8044C99.9013 44.5192 99.6903 44.1865 99.536 43.8063C99.3903 43.4261 99.3174 43.0102 99.3174 42.5587C99.3174 42.1071 99.3903 41.6912 99.536 41.311C99.6903 40.9307 99.9013 40.6019 100.17 40.3247C100.439 40.0395 100.758 39.8178 101.127 39.6593C101.495 39.5009 101.902 39.4216 102.348 39.4216C102.794 39.4216 103.201 39.5009 103.57 39.6593C103.939 39.8178 104.257 40.0395 104.527 40.3247C104.795 40.6019 105.003 40.9307 105.148 41.311C105.302 41.6912 105.379 42.1071 105.379 42.5587C105.379 43.0102 105.302 43.4261 105.148 43.8063C105.003 44.1865 104.795 44.5192 104.527 44.8044C104.257 45.0817 103.939 45.2996 103.57 45.458C103.201 45.6164 102.794 45.6956 102.348 45.6956ZM102.348 44.4479C102.594 44.4479 102.821 44.4004 103.028 44.3054C103.243 44.2102 103.424 44.0796 103.57 43.9132C103.723 43.7469 103.842 43.5488 103.926 43.3191C104.012 43.0815 104.053 42.8279 104.053 42.5587C104.053 42.2813 104.012 42.0278 103.926 41.7981C103.842 41.5684 103.723 41.3704 103.57 41.204C103.424 41.0376 103.243 40.907 103.028 40.8118C102.821 40.7168 102.594 40.6693 102.348 40.6693C102.103 40.6693 101.872 40.7168 101.657 40.8118C101.45 40.907 101.269 41.0376 101.115 41.204C100.969 41.3704 100.853 41.5684 100.769 41.7981C100.685 42.0278 100.642 42.2813 100.642 42.5587C100.642 42.8279 100.685 43.0815 100.769 43.3191C100.853 43.5488 100.969 43.7469 101.115 43.9132C101.269 44.0796 101.45 44.2102 101.657 44.3054C101.872 44.4004 102.103 44.4479 102.348 44.4479Z" fill="#642A38"/>
<path d="M90.8441 41.8561H91.6188L93.284 39.5824H94.7527L92.6364 42.4156L94.8105 45.5346H93.2955L91.5957 43.0584H90.8441V45.5346H89.5259V39.5824H90.8441V41.8561Z" fill="#642A38"/>
<path d="M71.4961 39.5824H72.8378V43.5466L75.4388 39.5824H76.7805V45.5346H75.4388V41.5704L72.826 45.5346H71.4961V39.5824Z" fill="#642A38"/>
<path d="M58.5953 39.5824V45.5346H57.29V42.9989H54.7832V45.5346H53.4663V39.5824H54.7832V41.7727H57.29V39.5824H58.5953Z" fill="#642A38"/>
<path d="M42.7417 39.5846H44.044V43.5473L46.5685 39.5846H47.8708V45.5346H46.5685V41.5719L44.0325 45.5346H42.7417V39.5846ZM45.3119 38.7516C44.7332 38.7516 44.2572 38.6048 43.884 38.3112C43.5109 38.0098 43.2786 37.5933 43.1873 37.0618L44.2839 36.8475C44.3295 37.1411 44.44 37.3632 44.6152 37.514C44.7902 37.6647 45.0226 37.74 45.3119 37.74C45.8983 37.74 46.2372 37.4425 46.3286 36.8475L47.4253 37.0618C47.3339 37.5933 47.1016 38.0098 46.7284 38.3112C46.3553 38.6048 45.8831 38.7516 45.3119 38.7516Z" fill="#642A38"/>
<path d="M35.7788 44.7212C35.3709 45.3708 34.7626 45.6956 33.9541 45.6956C33.6648 45.6956 33.3978 45.652 33.1529 45.5649C32.9156 45.4777 32.7116 45.355 32.541 45.1965C32.3778 45.0302 32.248 44.8361 32.1515 44.6143C32.0625 44.3845 32.0181 44.135 32.0181 43.8657C32.0181 43.2716 32.2294 42.8082 32.6523 42.4754C33.075 42.1348 33.6796 41.9487 34.4659 41.9169L35.7788 41.8576V41.7862C35.7788 41.3981 35.6676 41.0931 35.445 40.8713C35.2225 40.6495 34.9184 40.5385 34.5326 40.5385C33.9244 40.5385 33.4757 40.8396 33.1863 41.4416L32.1738 40.907C32.4037 40.4317 32.7227 40.0673 33.1307 39.8137C33.5387 39.5524 34.0245 39.4216 34.5883 39.4216C34.9592 39.4216 35.293 39.4771 35.5897 39.5879C35.8864 39.6989 36.1386 39.8613 36.3463 40.0752C36.554 40.2811 36.7135 40.5307 36.8247 40.8238C36.936 41.1169 36.9916 41.4456 36.9916 41.8101V45.5293H35.7788V44.7212ZM34.2322 44.5667C34.4622 44.5667 34.6699 44.5271 34.8554 44.4479C35.0482 44.3687 35.2114 44.2579 35.3449 44.1152C35.4858 43.9726 35.5934 43.8023 35.6676 43.6043C35.7417 43.4062 35.7788 43.1884 35.7788 42.9507V42.8438L34.5438 42.8913C33.6833 42.9388 33.2531 43.2319 33.2531 43.7706C33.2531 44.0162 33.3384 44.2102 33.509 44.3529C33.687 44.4955 33.9281 44.5667 34.2322 44.5667Z" fill="#642A38"/>
<path d="M24.5962 45.6956C23.9582 45.6956 23.4316 45.545 23.0162 45.2441C22.6008 44.9431 22.2854 44.5153 22.0703 43.9607L23.1385 43.5093C23.3759 44.2143 23.8544 44.5667 24.574 44.5667C24.9153 44.5667 25.1897 44.4915 25.3974 44.341C25.6051 44.1905 25.709 43.9845 25.709 43.7231C25.709 43.4934 25.6274 43.3151 25.4642 43.1884C25.3084 43.0617 25.0896 42.9983 24.8077 42.9983H23.6727V41.9051H24.7854C25.0377 41.9051 25.2342 41.8496 25.3751 41.7387C25.5162 41.6199 25.5866 41.4654 25.5866 41.2753C25.5866 41.0535 25.4938 40.8752 25.3084 40.7406C25.1304 40.598 24.8856 40.5267 24.574 40.5267C23.9286 40.5267 23.4909 40.8396 23.261 41.4654L22.2261 41.002C22.4487 40.4792 22.764 40.087 23.172 39.8256C23.5873 39.5563 24.0807 39.4216 24.6519 39.4216C25.2973 39.4216 25.8092 39.5801 26.1875 39.8969C26.5732 40.2059 26.7661 40.6178 26.7661 41.1327C26.7661 41.7665 26.4694 42.1982 25.8759 42.4279C26.1949 42.5388 26.4434 42.721 26.6214 42.9745C26.7995 43.2201 26.8885 43.5211 26.8885 43.8776C26.8885 44.1469 26.8328 44.3965 26.7216 44.6262C26.6103 44.848 26.4545 45.0381 26.2543 45.1965C26.0539 45.355 25.8129 45.4777 25.5309 45.5649C25.2491 45.652 24.9375 45.6956 24.5962 45.6956Z" fill="#642A38"/>
<path d="M11.6572 39.5824H12.9989V43.5466L15.6 39.5824H16.9417V45.5346H15.6V41.5704L12.9871 45.5346H11.6572V39.5824Z" fill="#642A38"/>
<path d="M0.000488281 44.2635H0.556049C0.648643 44.1532 0.725804 44.0114 0.787533 43.838C0.849262 43.6646 0.899417 43.4519 0.937997 43.1996C0.97658 42.9395 1.00358 42.6322 1.01902 42.2776C1.04217 41.9229 1.05374 41.5131 1.05374 41.0481V39.5824H5.60239V44.2635H6.52833V46.9824H5.23203V45.4929H1.29679V46.9824H0.000488281V44.2635ZM4.29451 44.2635V40.8118H2.33847V41.3201C2.33847 41.6904 2.33076 42.0215 2.31532 42.3131C2.29989 42.6046 2.27675 42.8686 2.24588 43.1051C2.21502 43.3336 2.17258 43.5425 2.11857 43.7316C2.06456 43.9207 2.00282 44.0981 1.93338 44.2635H4.29451Z" fill="#642A38"/>
<path d="M212 39.666V45.6183H210.756V43.7136H209.57L208.464 45.6183H207.026L208.315 43.4993C207.981 43.3406 207.718 43.1064 207.528 42.7969C207.346 42.4795 207.254 42.1104 207.254 41.6899C207.254 41.3962 207.304 41.1263 207.403 40.8803C207.501 40.6263 207.639 40.4121 207.814 40.2375C207.996 40.0549 208.213 39.916 208.464 39.8208C208.715 39.7176 208.992 39.666 209.297 39.666H212ZM210.756 40.8089H209.456C209.16 40.8089 208.924 40.8922 208.749 41.0589C208.581 41.2176 208.498 41.4279 208.498 41.6899C208.498 41.9517 208.581 42.166 208.749 42.3327C208.924 42.4914 209.16 42.5707 209.456 42.5707H210.756V40.8089Z" fill="#333333"/>
<path d="M196.613 39.666H197.915V43.6302L200.44 39.666H201.742V45.6183H200.44V41.6541L197.904 45.6183H196.613V39.666Z" fill="#333333"/>
<path d="M185.578 45.5767V39.666H186.872V44.3473H189.291V39.666H190.575V44.3473H191.483V47.0662H190.211V45.5767H185.578Z" fill="#333333"/>
<path d="M178.577 44.805C178.156 45.4545 177.528 45.7794 176.694 45.7794C176.396 45.7794 176.121 45.7358 175.869 45.6486C175.624 45.5615 175.414 45.4387 175.238 45.2803C175.069 45.1139 174.935 44.9198 174.835 44.698C174.744 44.4683 174.698 44.2188 174.698 43.9494C174.698 43.3553 174.916 42.8918 175.352 42.5592C175.789 42.2185 176.411 42.0323 177.222 42.0007L178.577 41.9412V41.87C178.577 41.4818 178.462 41.1768 178.232 40.955C178.003 40.7332 177.689 40.6223 177.291 40.6223C176.664 40.6223 176.201 40.9233 175.903 41.5254L174.859 40.9906C175.096 40.5153 175.425 40.1509 175.845 39.8975C176.266 39.636 176.767 39.5054 177.349 39.5054C177.732 39.5054 178.075 39.5608 178.382 39.6717C178.687 39.7826 178.948 39.945 179.162 40.1589C179.375 40.3649 179.54 40.6144 179.655 40.9075C179.77 41.2006 179.827 41.5293 179.827 41.8937V45.6129H178.577V44.805ZM176.982 44.6505C177.219 44.6505 177.432 44.6109 177.624 44.5317C177.823 44.4524 177.991 44.3415 178.129 44.199C178.275 44.0564 178.386 43.886 178.462 43.688C178.538 43.49 178.577 43.2721 178.577 43.0344V42.9275L177.303 42.9751C176.415 43.0226 175.972 43.3157 175.972 43.8544C175.972 44.1 176.06 44.294 176.236 44.4366C176.419 44.5792 176.668 44.6505 176.982 44.6505Z" fill="#333333"/>
<path d="M169.879 39.666V40.9041H168.047V45.6183H166.726V40.9041H164.906V39.666H169.879Z" fill="#333333"/>
<path d="M156.393 41.9399H157.146L158.762 39.666H160.188L158.133 42.4993L160.243 45.6183H158.773L157.123 43.1422H156.393V45.6183H155.115V39.666H156.393V41.9399Z" fill="#333333"/>
<path d="M147.085 45.7794C146.645 45.7794 146.239 45.704 145.867 45.5536C145.495 45.3952 145.177 45.1773 144.911 44.9C144.652 44.6228 144.448 44.294 144.295 43.9137C144.152 43.5336 144.08 43.1137 144.08 42.6542C144.08 42.1947 144.152 41.7749 144.295 41.3947C144.448 41.0065 144.652 40.6738 144.911 40.3965C145.177 40.1113 145.492 39.8935 145.856 39.743C146.22 39.5845 146.619 39.5054 147.051 39.5054C147.461 39.5054 147.837 39.5766 148.179 39.7192C148.52 39.8618 148.813 40.0638 149.056 40.3252C149.307 40.5787 149.496 40.8838 149.626 41.2402C149.762 41.5967 149.83 41.9928 149.83 42.4285C149.83 42.5156 149.826 42.6067 149.819 42.7018C149.811 42.7968 149.8 42.8998 149.785 43.0106H145.367C145.435 43.5018 145.62 43.89 145.924 44.1752C146.236 44.4524 146.63 44.591 147.108 44.591C147.784 44.591 148.293 44.2979 148.635 43.7117L149.568 44.4722C149.288 44.9 148.939 45.2248 148.52 45.4466C148.103 45.6684 147.625 45.7794 147.085 45.7794ZM147.029 40.658C146.619 40.658 146.27 40.7807 145.981 41.0263C145.7 41.2639 145.507 41.5888 145.401 42.0007H148.532C148.494 41.5967 148.339 41.2719 148.065 41.0263C147.791 40.7807 147.446 40.658 147.029 40.658Z" fill="#333333"/>
<path d="M133.044 44.3048H133.137C133.331 44.3048 133.489 44.2732 133.613 44.2101C133.744 44.1391 133.846 44.0129 133.915 43.8314C133.992 43.65 134.046 43.4015 134.077 43.086C134.109 42.7625 134.124 42.3523 134.124 41.8552V39.666H138.639V45.5827H137.316V40.8968H135.401V42.0801C135.401 42.7191 135.366 43.2635 135.296 43.7131C135.226 44.1549 135.11 44.5177 134.948 44.8018C134.785 45.0858 134.565 45.2948 134.287 45.429C134.007 45.5551 133.659 45.6183 133.242 45.6183H133.044V44.3048Z" fill="#333333"/>
<path d="M122.786 39.666H127.915V45.6183H126.609V40.9041H124.103V45.6183H122.786V39.666Z" fill="#333333"/>
<path d="M115.533 39.666H117.034V45.6183H115.858V41.4755L114.301 44.7969H113.551L111.994 41.4755V45.6183H110.817V39.666H112.341L113.943 43.1779L115.533 39.666Z" fill="#333333"/>
<path d="M102.348 45.7794C101.902 45.7794 101.495 45.7001 101.126 45.5417C100.758 45.3832 100.439 45.1654 100.17 44.8881C99.9003 44.603 99.6893 44.2702 99.536 43.89C99.3902 43.5097 99.3164 43.0939 99.3164 42.6423C99.3164 42.1908 99.3902 41.7749 99.536 41.3947C99.6893 41.0144 99.9003 40.6857 100.17 40.4085C100.439 40.1232 100.758 39.9014 101.126 39.743C101.495 39.5845 101.902 39.5054 102.348 39.5054C102.794 39.5054 103.201 39.5845 103.57 39.743C103.938 39.9014 104.257 40.1232 104.526 40.4085C104.794 40.6857 105.002 41.0144 105.148 41.3947C105.302 41.7749 105.378 42.1908 105.378 42.6423C105.378 43.0939 105.302 43.5097 105.148 43.89C105.002 44.2702 104.794 44.603 104.526 44.8881C104.257 45.1654 103.938 45.3832 103.57 45.5417C103.201 45.7001 102.794 45.7794 102.348 45.7794ZM102.348 44.5317C102.594 44.5317 102.82 44.4841 103.027 44.389C103.243 44.294 103.423 44.1633 103.57 43.9969C103.723 43.8306 103.842 43.6326 103.926 43.4028C104.011 43.1651 104.053 42.9117 104.053 42.6423C104.053 42.3651 104.011 42.1116 103.926 41.8819C103.842 41.6521 103.723 41.4541 103.57 41.2877C103.423 41.1214 103.243 40.9906 103.027 40.8956C102.82 40.8005 102.594 40.753 102.348 40.753C102.102 40.753 101.872 40.8005 101.656 40.8956C101.449 40.9906 101.268 41.1214 101.115 41.2877C100.969 41.4541 100.853 41.6521 100.769 41.8819C100.684 42.1116 100.642 42.3651 100.642 42.6423C100.642 42.9117 100.684 43.1651 100.769 43.4028C100.853 43.6326 100.969 43.8306 101.115 43.9969C101.268 44.1633 101.449 44.294 101.656 44.389C101.872 44.4841 102.102 44.5317 102.348 44.5317Z" fill="#333333"/>
<path d="M90.8436 41.9399H91.6183L93.2835 39.666H94.7518L92.6359 42.4993L94.8095 45.6183H93.295L91.5952 43.1422H90.8436V45.6183H89.5254V39.666H90.8436V41.9399Z" fill="#333333"/>
<path d="M71.4961 39.666H72.8378V43.6302L75.4388 39.666H76.7805V45.6183H75.4388V41.6541L72.826 45.6183H71.4961V39.666Z" fill="#333333"/>
<path d="M58.5948 39.666V45.6183H57.2895V43.0826H54.7827V45.6183H53.4658V39.666H54.7827V41.8565H57.2895V39.666H58.5948Z" fill="#333333"/>
<path d="M42.7412 39.6683H44.0435V43.631L46.568 39.6683H47.8703V45.6183H46.568V41.6556L44.032 45.6183H42.7412V39.6683ZM45.3115 38.8353C44.7327 38.8353 44.2567 38.6885 43.8836 38.395C43.5104 38.0935 43.2781 37.6771 43.1868 37.1454L44.2834 36.9313C44.3291 37.2248 44.4395 37.447 44.6147 37.5977C44.7898 37.7484 45.0221 37.8238 45.3115 37.8238C45.8978 37.8238 46.2368 37.5263 46.3282 36.9313L47.4248 37.1454C47.3334 37.6771 47.1011 38.0935 46.7279 38.395C46.3548 38.6885 45.8826 38.8353 45.3115 38.8353Z" fill="#333333"/>
<path d="M35.7788 44.805C35.3709 45.4545 34.7626 45.7794 33.9541 45.7794C33.6648 45.7794 33.3978 45.7358 33.1529 45.6486C32.9156 45.5615 32.7116 45.4387 32.541 45.2803C32.3778 45.1139 32.248 44.9198 32.1515 44.698C32.0625 44.4683 32.0181 44.2188 32.0181 43.9494C32.0181 43.3553 32.2294 42.8918 32.6523 42.5592C33.075 42.2185 33.6796 42.0323 34.4659 42.0007L35.7788 41.9412V41.87C35.7788 41.4818 35.6676 41.1768 35.4451 40.955C35.2225 40.7332 34.9184 40.6223 34.5326 40.6223C33.9244 40.6223 33.4757 40.9233 33.1863 41.5254L32.1738 40.9906C32.4037 40.5153 32.7227 40.1509 33.1307 39.8975C33.5387 39.636 34.0245 39.5054 34.5883 39.5054C34.9592 39.5054 35.293 39.5608 35.5897 39.6717C35.8864 39.7826 36.1386 39.945 36.3463 40.1589C36.554 40.3649 36.7135 40.6144 36.8247 40.9075C36.936 41.2006 36.9916 41.5293 36.9916 41.8937V45.6129H35.7788V44.805ZM34.2322 44.6505C34.4622 44.6505 34.6699 44.6109 34.8554 44.5317C35.0482 44.4524 35.2114 44.3415 35.3449 44.199C35.4859 44.0564 35.5934 43.886 35.6676 43.688C35.7418 43.49 35.7788 43.2721 35.7788 43.0344V42.9275L34.5438 42.9751C33.6833 43.0226 33.2531 43.3157 33.2531 43.8544C33.2531 44.1 33.3384 44.294 33.509 44.4366C33.687 44.5792 33.9281 44.6505 34.2322 44.6505Z" fill="#333333"/>
<path d="M24.5957 45.7794C23.9579 45.7794 23.4311 45.6288 23.0157 45.3278C22.6003 45.0267 22.2849 44.599 22.0698 44.0445L23.1381 43.5929C23.3755 44.2979 23.8539 44.6505 24.5735 44.6505C24.9148 44.6505 25.1893 44.5753 25.397 44.4247C25.6046 44.2742 25.7086 44.0682 25.7086 43.8069C25.7086 43.577 25.627 43.3989 25.4637 43.2721C25.3079 43.1453 25.0891 43.082 24.8072 43.082H23.6722V41.9888H24.7849C25.0372 41.9888 25.2337 41.9334 25.3748 41.8224C25.5157 41.7036 25.5861 41.5491 25.5861 41.3591C25.5861 41.1372 25.4934 40.959 25.3079 40.8243C25.1299 40.6817 24.8851 40.6105 24.5735 40.6105C23.9281 40.6105 23.4905 40.9233 23.2605 41.5491L22.2256 41.0857C22.4482 40.5628 22.7635 40.1708 23.1715 39.9094C23.5869 39.64 24.0802 39.5054 24.6514 39.5054C25.2969 39.5054 25.8087 39.6638 26.187 39.9807C26.5727 40.2896 26.7656 40.7016 26.7656 41.2164C26.7656 41.8501 26.4689 42.2819 25.8754 42.5116C26.1945 42.6225 26.443 42.8047 26.621 43.0583C26.799 43.3038 26.888 43.6049 26.888 43.9613C26.888 44.2306 26.8324 44.4801 26.7211 44.7098C26.6098 44.9317 26.4541 45.1219 26.2538 45.2803C26.0534 45.4387 25.8124 45.5615 25.5305 45.6486C25.2486 45.7358 24.937 45.7794 24.5957 45.7794Z" fill="#333333"/>
<path d="M11.6567 39.666H12.9985V43.6302L15.5995 39.666H16.9412V45.6183H15.5995V41.6541L12.9867 45.6183H11.6567V39.666Z" fill="#333333"/>
<path d="M0 44.3473H0.555562C0.648156 44.2369 0.725317 44.0951 0.787046 43.9217C0.848776 43.7483 0.89893 43.5355 0.937511 43.2834C0.97609 43.0233 1.0031 42.7159 1.01853 42.3613C1.04168 42.0067 1.05325 41.5969 1.05325 41.1319V39.666H5.60192V44.3473H6.52786V47.0662H5.23154V45.5767H1.29631V47.0662H0V44.3473ZM4.29403 44.3473V40.8955H2.33799V41.4038C2.33799 41.7742 2.33028 42.1052 2.31484 42.3967C2.29941 42.6884 2.27626 42.9524 2.2454 43.1887C2.21453 43.4173 2.17209 43.6261 2.11808 43.8153C2.06407 44.0044 2.00234 44.1817 1.93289 44.3473H4.29403Z" fill="#333333"/>
<path d="M155.022 7.01125H158.024V10.2789C158.766 9.07435 159.717 8.13891 160.878 7.47257C162.065 6.80622 163.4 6.47305 164.882 6.47305C166.167 6.47305 167.365 6.72934 168.477 7.24191C169.589 7.75448 170.554 8.45927 171.369 9.35627C172.185 10.2533 172.815 11.3297 173.26 12.5855C173.729 13.8157 173.964 15.1611 173.964 16.622C173.964 18.0828 173.729 19.4411 173.26 20.6969C172.815 21.9271 172.185 22.9906 171.369 23.8876C170.554 24.7847 169.589 25.4895 168.477 26.002C167.365 26.5146 166.167 26.7709 164.882 26.7709C163.4 26.7709 162.065 26.4377 160.878 25.7714C159.717 25.105 158.766 24.1696 158.024 22.9651V33.9212H155.022V7.01125ZM164.474 23.8492C165.438 23.8492 166.316 23.6698 167.106 23.3111C167.897 22.9522 168.577 22.4524 169.145 21.8118C169.713 21.1454 170.146 20.3766 170.442 19.5051C170.764 18.6081 170.924 17.6471 170.924 16.622C170.924 15.5712 170.764 14.6101 170.442 13.7388C170.146 12.8673 169.713 12.1114 169.145 11.4706C168.577 10.8043 167.897 10.2917 167.106 9.93287C166.316 9.57411 165.438 9.39471 164.474 9.39471C163.51 9.39471 162.633 9.57411 161.843 9.93287C161.052 10.2917 160.372 10.8043 159.803 11.4706C159.235 12.1114 158.791 12.8673 158.469 13.7388C158.173 14.6101 158.024 15.5712 158.024 16.622C158.024 17.6471 158.173 18.6081 158.469 19.5051C158.791 20.3766 159.235 21.1454 159.803 21.8118C160.372 22.4524 161.052 22.9522 161.843 23.3111C162.633 23.6698 163.51 23.8492 164.474 23.8492Z" fill="#333333"/>
<path d="M142.227 26.7063C140.79 26.7063 139.475 26.4636 138.286 25.9782C137.12 25.4672 136.115 24.7647 135.273 23.8706C134.43 22.9764 133.773 21.9162 133.302 20.69C132.83 19.4637 132.595 18.1225 132.595 16.6663C132.595 15.1846 132.83 13.8306 133.302 12.6043C133.773 11.3525 134.43 10.2795 135.273 9.38541C136.141 8.46572 137.157 7.7504 138.322 7.23947C139.488 6.72852 140.752 6.47305 142.116 6.47305C143.43 6.47305 144.62 6.70297 145.687 7.16282C146.778 7.59712 147.707 8.22303 148.476 9.04053C149.244 9.85803 149.84 10.8416 150.262 11.9912C150.707 13.1153 150.931 14.3671 150.931 15.7466C150.931 16.2831 150.894 16.8452 150.819 17.4327H135.682C135.831 19.3487 136.5 20.8943 137.69 22.0695C138.88 23.2191 140.406 23.7939 142.265 23.7939C144.62 23.7939 146.455 22.7465 147.77 20.6517L150.15 22.491C148.266 25.3012 145.624 26.7063 142.227 26.7063ZM142.042 9.34709C140.406 9.34709 139.042 9.84529 137.951 10.8416C136.884 11.8124 136.178 13.1025 135.831 14.712H147.844C147.819 13.9456 147.646 13.2303 147.323 12.566C147.026 11.9017 146.616 11.3398 146.096 10.8799C145.6 10.3945 145.004 10.0241 144.311 9.76862C143.616 9.4876 142.86 9.34709 142.042 9.34709Z" fill="#333333"/>
<path d="M117.39 23.4419H121.733C122.91 23.4419 123.83 23.1102 124.492 22.4469C125.155 21.7835 125.486 20.916 125.486 19.8445C125.486 18.7729 125.155 17.9182 124.492 17.2804C123.83 16.6425 122.91 16.3236 121.733 16.3236H117.39V23.4419ZM114.41 26.2356V7.10037H117.39V13.5298H122.101C123.058 13.5298 123.928 13.6829 124.713 13.9891C125.499 14.2953 126.173 14.7289 126.737 15.2903C127.301 15.8516 127.73 16.5277 128.025 17.3186C128.343 18.084 128.503 18.9387 128.503 19.8828C128.503 20.8012 128.343 21.6559 128.025 22.4469C127.73 23.2123 127.301 23.8757 126.737 24.437C126.197 24.9982 125.535 25.4447 124.75 25.7764C123.965 26.0826 123.095 26.2356 122.138 26.2356H114.41Z" fill="#333333"/>
<path d="M91.3765 7.01125H94.379V10.2789C95.1207 9.07435 96.0719 8.13891 97.2332 7.47257C98.42 6.80622 99.7544 6.47305 101.237 6.47305C102.522 6.47305 103.72 6.72934 104.832 7.24191C105.944 7.75448 106.908 8.45927 107.723 9.35627C108.539 10.2533 109.17 11.3297 109.614 12.5855C110.084 13.8157 110.318 15.1611 110.318 16.622C110.318 18.0828 110.084 19.4411 109.614 20.6969C109.17 21.9271 108.539 22.9906 107.723 23.8876C106.908 24.7847 105.944 25.4895 104.832 26.002C103.72 26.5146 102.522 26.7709 101.237 26.7709C99.7544 26.7709 98.42 26.4377 97.2332 25.7714C96.0719 25.105 95.1207 24.1696 94.379 22.9651V33.9212H91.3765V7.01125ZM100.829 23.8492C101.793 23.8492 102.67 23.6698 103.461 23.3111C104.252 22.9522 104.931 22.4524 105.499 21.8118C106.068 21.1454 106.501 20.3766 106.797 19.5051C107.119 18.6081 107.279 17.6471 107.279 16.622C107.279 15.5712 107.119 14.6101 106.797 13.7388C106.501 12.8673 106.068 12.1114 105.499 11.4706C104.931 10.8043 104.252 10.2917 103.461 9.93287C102.67 9.57411 101.793 9.39471 100.829 9.39471C99.8652 9.39471 98.9878 9.57411 98.1976 9.93287C97.4063 10.2917 96.7268 10.8043 96.158 11.4706C95.5902 12.1114 95.1453 12.8673 94.8236 13.7388C94.5273 14.6101 94.379 15.5712 94.379 16.622C94.379 17.6471 94.5273 18.6081 94.8236 19.5051C95.1453 20.3766 95.5902 21.1454 96.158 21.8118C96.7268 22.4524 97.4063 22.9522 98.1976 23.3111C98.9878 23.6698 99.8652 23.8492 100.829 23.8492Z" fill="#333333"/>
<path d="M78.6538 26.7063C77.2277 26.7063 75.9243 26.4636 74.744 25.9782C73.5883 25.4673 72.5924 24.7647 71.7564 23.8706C70.9203 22.9765 70.2687 21.9162 69.8014 20.69C69.3342 19.4637 69.1006 18.1225 69.1006 16.6663C69.1006 15.1846 69.3342 13.8306 69.8014 12.6043C70.2687 11.3525 70.9203 10.2796 71.7564 9.38544C72.6169 8.46575 73.6252 7.75043 74.781 7.2395C75.9366 6.72855 77.1908 6.47308 78.5432 6.47308C79.8465 6.47308 81.0268 6.703 82.0842 7.16285C83.1661 7.59715 84.0883 8.22306 84.8506 9.04056C85.6128 9.85805 86.203 10.8417 86.6211 11.9912C87.0637 13.1153 87.285 14.3671 87.285 15.7467C87.285 16.2831 87.2482 16.8452 87.1743 17.4327H72.1621C72.3096 19.3487 72.9736 20.8943 74.1539 22.0695C75.3342 23.2191 76.8465 23.7939 78.6908 23.7939C81.0268 23.7939 82.8465 22.7465 84.1497 20.6517L86.5104 22.4911C84.6416 25.3012 82.0227 26.7063 78.6538 26.7063ZM78.4695 9.34712C76.8464 9.34712 75.494 9.84532 74.412 10.8417C73.3547 11.8124 72.6539 13.1026 72.3096 14.712H84.2236C84.199 13.9456 84.0268 13.2303 83.7071 12.566C83.4121 11.9018 83.0064 11.3398 82.4899 10.88C81.9981 10.3946 81.4079 10.0241 80.7194 9.76865C80.0309 9.48763 79.2809 9.34712 78.4695 9.34712Z" fill="#333333"/>
<path d="M65.0091 7.10037V9.97068H58.6994V26.2356H55.7106V9.97068H49.4009V7.10037H65.0091Z" fill="#333333"/>
<path d="M45.3092 7.10037V26.2356H42.3284V17.51H32.8335V26.2356H29.8525V7.10037H32.8335V14.6397H42.3284V7.10037H45.3092Z" fill="#333333"/>
<path d="M9.64055 2.69871C10.2295 2.17909 10.3819 1.36435 9.98079 0.878924C9.57969 0.393504 8.77714 0.421227 8.18816 0.940845C7.59918 1.46046 7.44686 2.27521 7.84793 2.76063C8.249 3.24604 9.0516 3.21832 9.64055 2.69871Z" fill="#642A38"/>
<path d="M22.1836 18.876C22.1836 18.876 22.4106 25.839 25.1818 25.2696C25.1818 25.2696 15.23 29.8011 16.4616 18.7059C16.4616 18.7059 16.7454 15.4493 14.3208 14.9007C14.3208 14.9007 12.5777 14.5508 10.1536 18.876C10.1536 18.876 6.71737 25.0562 4.3794 26.3717C4.3794 26.3717 -0.0815958 28.9531 0.823954 20.8427C0.823954 20.8427 1.36843 15.2583 6.75143 4.24303C6.75143 4.24303 7.24171 3.20432 8.21624 3.60448C8.37477 3.66957 8.46902 3.83343 8.48461 4.00885C8.49756 4.15454 8.48225 4.30144 8.43961 4.44097L8.32913 4.80237C8.32913 4.80237 4.24363 13.2535 4.84978 16.6257C4.84978 16.6257 5.15285 19.2921 6.89552 18.876C6.89552 18.876 9.77473 17.6452 12.5023 13.1754C12.5023 13.1754 16.5241 6.89351 19.7721 6.85817C19.7721 6.85817 22.5339 6.54714 22.6627 11.773C22.6627 11.773 21.9764 17.847 22.1836 18.876Z" fill="#642A38"/>
<path d="M202.27 25.6717V26.7063H187.784V25.6717H202.27ZM211.004 16.5897C211.004 11.5739 207.093 7.50771 202.27 7.50771H187.784C182.961 7.50771 179.05 11.5739 179.05 16.5897C179.05 21.6055 182.961 25.6717 187.784 25.6717V26.7063L187.66 26.7054C182.343 26.6354 178.055 22.1333 178.055 16.5897C178.055 11.0024 182.412 6.47305 187.784 6.47305H202.27C207.643 6.47305 211.999 11.0024 211.999 16.5897C211.999 22.1333 207.711 26.6354 202.395 26.7054L202.27 26.7063V25.6717C207.093 25.6717 211.004 21.6055 211.004 16.5897Z" fill="#642A38"/>
<path d="M200.691 6.47305H201.941V12.2662C202.575 12.288 203.145 12.4137 203.652 12.643C204.168 12.8615 204.607 13.1673 204.965 13.5605C205.325 13.9427 205.599 14.3905 205.789 14.9039C205.989 15.4172 206.09 15.9742 206.09 16.5749C206.09 17.1757 205.989 17.7327 205.789 18.246C205.599 18.7593 205.325 19.2125 204.965 19.6057C204.607 19.9881 204.168 20.2938 203.652 20.5232C203.145 20.7417 202.575 20.8618 201.941 20.8836V26.7063H200.691V20.8836C200.058 20.8618 199.483 20.7417 198.965 20.5232C198.459 20.2938 198.026 19.9881 197.667 19.6057C197.309 19.2125 197.028 18.7593 196.828 18.246C196.638 17.7327 196.543 17.1757 196.543 16.5749C196.543 15.9742 196.638 15.4172 196.828 14.9039C197.028 14.3905 197.309 13.9427 197.667 13.5605C198.026 13.1673 198.459 12.8615 198.965 12.643C199.483 12.4137 200.058 12.288 200.691 12.2662V6.47305ZM201.941 19.6549C202.363 19.644 202.749 19.5621 203.098 19.4091C203.457 19.2562 203.762 19.0433 204.016 18.7703C204.269 18.4971 204.465 18.175 204.602 17.8037C204.749 17.4323 204.823 17.0228 204.823 16.5749C204.823 16.1271 204.749 15.7176 204.602 15.3462C204.465 14.9748 204.269 14.6526 204.016 14.3796C203.762 14.1065 203.457 13.8936 203.098 13.7406C202.749 13.5877 202.363 13.5058 201.941 13.495V19.6549ZM200.691 13.495C200.269 13.5058 199.878 13.5877 199.519 13.7406C199.171 13.8936 198.87 14.1065 198.617 14.3796C198.364 14.6526 198.163 14.9748 198.016 15.3462C197.878 15.7176 197.809 16.1271 197.809 16.5749C197.809 17.0228 197.878 17.4323 198.016 17.8037C198.163 18.175 198.364 18.4971 198.617 18.7703C198.87 19.0433 199.171 19.2562 199.519 19.4091C199.878 19.5621 200.269 19.644 200.691 19.6549V13.495Z" fill="#642A38"/>
<path d="M187.451 12.5051H188.724V13.8934C189.038 13.3816 189.442 12.9842 189.934 12.7011C190.437 12.418 191.003 12.2764 191.632 12.2764C192.176 12.2764 192.684 12.3854 193.156 12.6031C193.628 12.8209 194.036 13.1203 194.382 13.5014C194.728 13.8825 194.995 14.3398 195.184 14.8733C195.383 15.396 195.482 15.9675 195.482 16.5882C195.482 17.2088 195.383 17.7859 195.184 18.3194C194.995 18.8421 194.728 19.2939 194.382 19.675C194.036 20.0561 193.628 20.3555 193.156 20.5733C192.684 20.7911 192.176 20.8999 191.632 20.8999C191.003 20.8999 190.437 20.7583 189.934 20.4752C189.442 20.1921 189.038 19.7948 188.724 19.283V26.7063H187.451V12.5051ZM191.459 19.6586C191.868 19.6586 192.24 19.5824 192.575 19.43C192.91 19.2776 193.198 19.0652 193.439 18.7931C193.68 18.51 193.864 18.1833 193.989 17.8131C194.125 17.432 194.193 17.0237 194.193 16.5882C194.193 16.1418 194.125 15.7334 193.989 15.3632C193.864 14.993 193.68 14.6718 193.439 14.3997C193.198 14.1166 192.91 13.8988 192.575 13.7464C192.24 13.5939 191.868 13.5177 191.459 13.5177C191.05 13.5177 190.678 13.5939 190.343 13.7464C190.008 13.8988 189.719 14.1166 189.478 14.3997C189.238 14.6718 189.049 14.993 188.913 15.3632C188.787 15.7334 188.724 16.1418 188.724 16.5882C188.724 17.0237 188.787 17.432 188.913 17.8131C189.049 18.1833 189.238 18.51 189.478 18.7931C189.719 19.0652 190.008 19.2776 190.343 19.43C190.678 19.5824 191.05 19.6586 191.459 19.6586Z" fill="#642A38"/>
<path d="M182.45 17.766C182.106 17.766 181.815 17.6567 181.576 17.4381C181.351 17.2067 181.238 16.9239 181.238 16.5896C181.238 16.2553 181.351 15.9789 181.576 15.7604C181.815 15.529 182.106 15.4133 182.45 15.4133C182.794 15.4133 183.079 15.529 183.304 15.7604C183.543 15.9789 183.662 16.2553 183.662 16.5896C183.662 16.9239 183.543 17.2067 183.304 17.4381C183.079 17.6567 182.794 17.766 182.45 17.766Z" fill="#642A38"/>
</g>
<defs>
<clipPath id="clip0_1_1580">
<rect width="212" height="48" fill="white"/>
</clipPath>
</defs>
</svg>
