<svg xmlns="http://www.w3.org/2000/svg" width="18" height="17" fill="currentColor" viewBox="0 0 18 17">
  <path d="M9.194 16.953c-1.768 0-2.59-.246-4.014-1.228-.906 1.105-3.76 1.965-3.885.49 0-1.104-.261-2.034-.55-3.059C.394 11.902 0 10.506 0 8.476 0 3.64 4.185 0 9.148 0 14.109 0 18 3.816 18 8.524c0 4.707-4.014 8.429-8.806 8.429Zm.072-12.77c-2.414-.12-4.298 1.468-4.714 3.954-.344 2.06.266 4.569.788 4.695.246.06.876-.424 1.264-.793.64.393 1.373.698 2.188.738 2.479.123 4.675-1.716 4.805-4.067.13-2.35-1.852-4.404-4.33-4.527Z"/>
</svg>
