<svg xmlns="http://www.w3.org/2000/svg" width="18" height="14" fill="currentColor" viewBox="0 0 18 14">
  <path d="M.272 6.512c1.841-.952 3.897-1.747 5.817-2.546 3.305-1.31 6.622-2.595 9.973-3.793.652-.204 1.823-.403 1.938.504-.063 1.284-.322 2.56-.5 3.838-.45 2.808-.97 5.606-1.478 8.404-.175.932-1.418 1.415-2.214.818-1.912-1.213-3.839-2.414-5.727-3.655-.618-.59-.044-1.437.508-1.858 1.575-1.458 3.245-2.696 4.737-4.23.403-.912-.787-.143-1.179.093-2.156 1.395-4.26 2.876-6.532 4.102-1.161.6-2.515.087-3.675-.248C.9 7.537-.626 7.13.272 6.512Z"/>
</svg>
